<svg xmlns="http://www.w3.org/2000/svg" width="100" height="100" viewBox="0 0 100 100"><g transform="translate(-2150 535)"><circle cx="50" cy="50" r="50" transform="translate(2150 -535)" fill="#9f734c" opacity="0.1"/><path d="M38.476,23.6a1.387,1.387,0,0,0-1.956.14l-5.472,6.317-1.142-1.334a1.387,1.387,0,1,0-2.107,1.8l2.19,2.556a1.388,1.388,0,0,0,1.049.484h0a1.386,1.386,0,0,0,1.048-.479l6.527-7.534a1.386,1.386,0,0,0-.137-1.95Z" transform="translate(2169.353 -514.561)" fill="#9f734c"/><path d="M46.6,14.885a3.979,3.979,0,0,0-3.344-3.8c-5.445-.978-10.62-5.755-13.217-8.513a4.073,4.073,0,0,0-2.917-1.284h-.011a4.041,4.041,0,0,0-2.98,1.282c-2.6,2.76-7.775,7.537-13.22,8.515A4,4,0,0,0,7.569,14.9a60.143,60.143,0,0,0,.986,11.948h0c2.258,11.908,8.209,19.882,17.212,23.061a4.038,4.038,0,0,0,1.338.226,3.775,3.775,0,0,0,1.3-.23c9-3.262,14.956-11.235,17.225-23.059h0a57.579,57.579,0,0,0,.965-11.961ZM17.065,25.567H10.516a58.679,58.679,0,0,1-.791-10.633,1.815,1.815,0,0,1,1.562-1.723c6.054-1.088,11.626-6.2,14.413-9.161a1.873,1.873,0,0,1,.33-.28V15.831a10.059,10.059,0,0,0-8.962,9.736ZM27.1,33.077a7.255,7.255,0,1,1,2.9-13.9l1-1.16a3.382,3.382,0,0,1,2.558-1.168h0a3.383,3.383,0,0,1,2.556,5.6l-1.873,2.162A7.214,7.214,0,0,1,27.1,33.077Zm1.08,14.61V35.813a10.069,10.069,0,0,0,8.785-8.09H43.25c-1.634,7.354-5.586,16.266-15.067,19.964Z" transform="translate(2173.357 -510.141)" fill="#9f734c"/></g></svg>