<svg xmlns="http://www.w3.org/2000/svg" width="100" height="100" viewBox="0 0 100 100">
  <g id="care-supervision" transform="translate(-1400 -205)">
    <circle id="Ellipse_2" data-name="Ellipse 2" cx="50" cy="50" r="50" transform="translate(1400 205)" fill="#0288a5" opacity="0.1"/>
    <g id="Insurance_security_approved" transform="translate(1423.357 229.859)">
      <path id="Path_300" data-name="Path 300" d="M38.476,23.6a1.387,1.387,0,0,0-1.956.14l-5.472,6.317-1.142-1.334a1.387,1.387,0,1,0-2.107,1.8l2.19,2.556a1.388,1.388,0,0,0,1.049.484h0a1.386,1.386,0,0,0,1.048-.479l6.527-7.534A1.386,1.386,0,0,0,38.476,23.6Z" transform="translate(-4.004 -4.42)" fill="#2a622e"/>
      <path id="Path_301" data-name="Path 301" d="M46.595,14.885a3.979,3.979,0,0,0-3.344-3.8c-5.445-.978-10.62-5.755-13.217-8.513a4.073,4.073,0,0,0-2.917-1.284h-.011a4.041,4.041,0,0,0-2.98,1.282c-2.6,2.76-7.775,7.537-13.22,8.515A4,4,0,0,0,7.569,14.9a60.143,60.143,0,0,0,.986,11.948v0c2.258,11.908,8.209,19.882,17.212,23.061a4.038,4.038,0,0,0,1.338.226,3.775,3.775,0,0,0,1.3-.23c9-3.262,14.956-11.235,17.225-23.059h0A57.579,57.579,0,0,0,46.595,14.885ZM17.065,25.567H10.516a58.679,58.679,0,0,1-.791-10.633,1.815,1.815,0,0,1,1.562-1.723C17.341,12.123,22.913,7.006,25.7,4.05a1.873,1.873,0,0,1,.33-.28V15.831a10.059,10.059,0,0,0-8.962,9.736ZM27.1,33.077a7.255,7.255,0,1,1,2.9-13.9l1-1.16a3.382,3.382,0,0,1,2.558-1.168h0a3.383,3.383,0,0,1,2.556,5.6l-1.873,2.162A7.214,7.214,0,0,1,27.1,33.077Zm1.08,14.61V35.813a10.069,10.069,0,0,0,8.785-8.09H43.25C41.616,35.077,37.664,43.989,28.183,47.687Z" transform="translate(0 0)" fill="#2a622e"/>
    </g>
  </g>
</svg>
