<svg xmlns="http://www.w3.org/2000/svg" width="202.266" height="69.048" viewBox="0 0 202.266 69.048">
  <g id="CoreS-Logo" transform="translate(-162 -253)">
    <path id="Path_89" data-name="Path 89" d="M16.679,69.312c17.3,9.427,30.2,7.864,33.6,7.749,3.686-.114,9.884-6.9-1.187-10.123S28.137,59.679,28.5,54.315,39.094,47.65,39.094,47.65C61.874,46.029,62.422,42.3,62.422,42.3s2.1-4.7-3.9-8a10.05,10.05,0,0,0-1.233-.571,34.3,34.3,0,0,0-6.768-1.883c-.788-.126-1.632-.24-2.522-.331-1.084-.1-2.191-.16-3.31-.16a34.539,34.539,0,0,0-33.28,25.3,11.069,11.069,0,0,0,4.611,12.257c.217.137.434.274.662.388Z" transform="translate(151 221.648)" fill="#049dbe"/>
    <path id="Path_90" data-name="Path 90" d="M44.686,100.4a34.536,34.536,0,0,0,33.12-44.282c-.434-1.392-.9-2.648-1.324-3.7-.32-.742-.651-1.472-1.016-2.191-3.241-5.843-7.339-3.994-8.731-3.572-1.552.479-5.958,4.052-16.423,4.759s-10.123,5.124-10.123,5.124a3.381,3.381,0,0,0,2.5,3.333s14.049,5.592,17.5,6.9,8.468,7.875-2.5,14.163C45.633,87.858,25.661,79.869,23.047,78.8c-2.591-1.061-12.052-4.542-10.625-.616.023.046.034.1.057.148.148.365.594,1.449,1.29,2.922A34.515,34.515,0,0,0,44.686,100.4Z" transform="translate(151 221.648)" fill="#049dbe"/>
    <path id="Path_91" data-name="Path 91" d="M62.764,69.289a.643.643,0,0,0,.023-.114c-.137-.171-.274-.331-.422-.491-.046.148-.091.274-.126.4-.445,1.655-.89,3.3-1.335,4.953a4.044,4.044,0,0,0-.137.742,8.215,8.215,0,0,1-.81,2.967,8.448,8.448,0,0,0-.491,1.655c.251-.183.491-.354.719-.525q1.267-4.793,2.556-9.587Z" transform="translate(151 221.648)" fill="#06677e"/>
    <path id="Path_92" data-name="Path 92" d="M61.337,77.917q1.027-3.852,2.066-7.681a.212.212,0,0,1,.023-.08c-.126-.228-.262-.457-.4-.673-.822,3.059-1.621,6.083-2.431,9.1.274-.228.525-.445.753-.662Z" transform="translate(151 221.648)" fill="#06677e"/>
    <path id="Path_93" data-name="Path 93" d="M33.969,49.533q-2.089,3.646-4.2,7.27a.617.617,0,0,0-.1.342c.08.126.171.24.263.365.011,0,.034.023.046.034,1.632-2.83,3.264-5.615,4.907-8.5a.982.982,0,0,0-.194.034c-.137.046-.285.1-.422.148a.81.81,0,0,0-.3.32Z" transform="translate(151 221.648)" fill="#06677e"/>
    <path id="Path_94" data-name="Path 94" d="M29.324,55.89a.646.646,0,0,0-.1.468c.034.08.08.16.114.24a1.437,1.437,0,0,0,.125.148c1.4-2.431,2.762-4.793,4.189-7.247a.574.574,0,0,0-.137.023c-.217.091-.422.183-.628.285a.7.7,0,0,0-.137.183q-1.695,2.962-3.412,5.912Zm4.177-6.3c-.08.057-.16.114-.228.171C33.353,49.7,33.433,49.647,33.5,49.59Z" transform="translate(151 221.648)" fill="#06677e"/>
    <path id="Path_95" data-name="Path 95" d="M62.57,76.548c.434-1.655.867-3.31,1.324-4.965a.269.269,0,0,1,.023-.091,6.556,6.556,0,0,0-.308-.947c-.639,2.351-1.244,4.6-1.78,6.87a10.015,10.015,0,0,0,.753-.879Z" transform="translate(151 221.648)" fill="#06677e"/>
    <path id="Path_96" data-name="Path 96" d="M29.1,54.6a1.038,1.038,0,0,0-.057,1.05,49.861,49.861,0,0,0,3.161-5.5c-.274.148-.536.308-.8.479,0,.011-.023.034-.023.046C30.637,52,29.872,53.3,29.107,54.612Z" transform="translate(151 221.648)" fill="#06677e"/>
    <path id="Path_97" data-name="Path 97" d="M61.52,68.513c-.274,1.016-.514,2.043-.822,3.047a2.011,2.011,0,0,0,.148,1.6c.422-1.552.833-3.116,1.255-4.668v-.046a4.7,4.7,0,0,0-.445-.388,3.875,3.875,0,0,0-.148.479Z" transform="translate(151 221.648)" fill="#06677e"/>
    <path id="Path_98" data-name="Path 98" d="M32.908,53.151a1.253,1.253,0,0,0,.114-.091c.1-.125.205-.251.3-.377-.1.125-.205.251-.3.377a4.67,4.67,0,0,0,1.141-1.13c.582-.89,1.084-1.838,1.609-2.762.08-.137.148-.3.24-.491H35.9c-.137.046-.285.08-.434.126a.824.824,0,0,0-.308.342c-.7,1.233-1.415,2.454-2.123,3.686-.057.1-.091.217-.137.32Z" transform="translate(151 221.648)" fill="#06677e"/>
    <path id="Path_99" data-name="Path 99" d="M60.915,67.554c-.263.993-.514,1.975-.8,2.933a.984.984,0,0,0,.228.993c.046-.046.091-.069.1-.091.308-1.118.593-2.248.9-3.367a.453.453,0,0,0,.023-.206c-.114-.08-.24-.16-.354-.24a.316.316,0,0,1-.1-.011Z" transform="translate(151 221.648)" fill="#06677e"/>
    <path id="Path_100" data-name="Path 100" d="M34.734,51.69a1.951,1.951,0,0,0,.879-.6c.559-.867,1.05-1.769,1.621-2.739-.194.046-.4.091-.616.148a.841.841,0,0,0-.3.331c-.468.856-.97,1.689-1.45,2.534-.057.1-.08.217-.125.32Z" transform="translate(151 221.648)" fill="#06677e"/>
    <path id="Path_101" data-name="Path 101" d="M59.876,70.236c.24-.856.468-1.712.7-2.579.091-.354-.114-.434-.434-.479-.206.765-.4,1.518-.616,2.248a.743.743,0,0,0,.251.9c.057-.046.1-.068.114-.1Z" transform="translate(151 221.648)" fill="#06677e"/>
    <path id="Path_102" data-name="Path 102" d="M22.614,78.145c.593-.194,1.2-.331,1.792-.491a4.419,4.419,0,0,0,.479-.205c-.4-.1-.673-.274-.9-.228-.8.171-1.586.411-2.442.639.308.114.6.228.879.331a.668.668,0,0,0,.206-.046Z" transform="translate(151 221.648)" fill="#06677e"/>
    <path id="Path_103" data-name="Path 103" d="M30.682,51.143a5.259,5.259,0,0,0-1.575,2,4.863,4.863,0,0,0-.194.97,16.693,16.693,0,0,0,1.758-2.967Z" transform="translate(151 221.648)" fill="#06677e"/>
    <path id="Path_104" data-name="Path 104" d="M23.7,78.7c.765-.194,1.529-.4,2.374-.628,0,0-.023-.011-.023-.023a1.04,1.04,0,0,0-1.073-.263c-.24.08-.479.137-.73.206-.422.114-.856.24-1.358.377.1.034.194.08.285.114C23.332,78.556,23.5,78.625,23.7,78.7Z" transform="translate(151 221.648)" fill="#06677e"/>
    <path id="Path_105" data-name="Path 105" d="M23.321,77.061v-.148a2.827,2.827,0,0,0-.89-.16c-.753.148-1.484.377-2.271.593a.035.035,0,0,1,.023.011c.011.011.034.023.046.034.274.091.548.183.81.285C21.8,77.483,22.568,77.267,23.321,77.061Z" transform="translate(151 221.648)" fill="#06677e"/>
    <path id="Path_106" data-name="Path 106" d="M36.3,50.64a.834.834,0,0,0,.057.068c.251-.16.582-.262.73-.491.434-.651.8-1.358,1.221-2.089h-.011c-.194.034-.411.08-.651.126a.628.628,0,0,0-.08.1c-.445.742-.879,1.495-1.312,2.248,0,.011.023.023.034.034Z" transform="translate(151 221.648)" fill="#06677e"/>
    <path id="Path_107" data-name="Path 107" d="M27.11,78.682v-.137c-.205-.091-.434-.274-.6-.24-.776.16-1.529.388-2.294.582v.034c.251.091.514.194.8.308.708-.148,1.392-.354,2.089-.536Z" transform="translate(151 221.648)" fill="#06677e"/>
    <path id="Path_108" data-name="Path 108" d="M58.1,46.577l.1.1c.217-.137.514-.217.639-.411.377-.571.708-1.175,1.05-1.769-.251.1-.525.206-.822.32-.205.4-.445.788-.673,1.176l-.308.582Z" transform="translate(151 221.648)" fill="#06677e"/>
    <path id="Path_109" data-name="Path 109" d="M58.861,68.673a.613.613,0,0,0,.354.822c.217-.845.434-1.655.662-2.488-.148-.057-.32-.126-.5-.194-.171.65-.319,1.255-.5,1.86Z" transform="translate(151 221.648)" fill="#06677e"/>
    <path id="Path_110" data-name="Path 110" d="M56.944,46.943c.274-.023.559-.069.673-.228.365-.548.685-1.13,1.039-1.757-.24.08-.5.16-.776.251-.263.468-.536.924-.8,1.392A3.061,3.061,0,0,0,56.944,46.943Z" transform="translate(151 221.648)" fill="#06677e"/>
    <path id="Path_111" data-name="Path 111" d="M59.443,46.007s.057.046.091.08a4.4,4.4,0,0,0,.81-.708c.32-.456.582-.959.9-1.518-.251.148-.548.3-.89.457-.034.057-.08.137-.125.217-.217.388-.445.765-.662,1.153a1.954,1.954,0,0,0-.125.331Z" transform="translate(151 221.648)" fill="#06677e"/>
    <path id="Path_112" data-name="Path 112" d="M55.859,47.365c.206-.1.479-.148.582-.308.354-.536.662-1.107,1.016-1.723-.24.068-.479.137-.742.205-.342.559-.662,1.141-.993,1.7.046.034.08.08.125.114Z" transform="translate(151 221.648)" fill="#06677e"/>
    <path id="Path_113" data-name="Path 113" d="M55.414,47.205c.24-.445.5-.879.753-1.324.034-.069.057-.148.091-.217-.217.057-.434.1-.662.16-.365.548-.673,1.13-1.027,1.746a.734.734,0,0,0,.845-.377Z" transform="translate(151 221.648)" fill="#06677e"/>
    <path id="Path_114" data-name="Path 114" d="M37.758,50.035c.217-.114.5-.183.628-.354.354-.525.662-1.1,1.016-1.7a2.219,2.219,0,0,0-.274.023c-.034,0-.171.023-.388.057-.023.034-.057.068-.08.1-.342.582-.673,1.175-1.016,1.758.034.034.068.08.1.114Z" transform="translate(151 221.648)" fill="#06677e"/>
    <path id="Path_115" data-name="Path 115" d="M31.561,55.4c-.491.845-.913,1.586-1.381,2.4a.563.563,0,0,0,.08.091c.068.08.148.16.228.24.023.011.034.034.057.046a4.74,4.74,0,0,0,1.05-2.819c0,.011-.011.023-.023.034Z" transform="translate(151 221.648)" fill="#06677e"/>
    <path id="Path_116" data-name="Path 116" d="M52.47,48.152c.183-.08.457-.1.548-.24.365-.536.673-1.107,1.05-1.758-.217.046-.445.091-.673.137a.249.249,0,0,0-.08.1c-.331.548-.639,1.1-.959,1.644.034.046.08.08.114.125ZM53.953,46.2c-.08.057-.16.114-.228.171C53.8,46.315,53.885,46.258,53.953,46.2Z" transform="translate(151 221.648)" fill="#06677e"/>
    <path id="Path_117" data-name="Path 117" d="M53.485,47.855c.274,0,.559-.046.662-.205.365-.536.662-1.107,1.016-1.723-.217.046-.445.1-.673.148a.6.6,0,0,0-.137.194c-.228.411-.468.8-.7,1.2C53.588,47.593,53.542,47.73,53.485,47.855Z" transform="translate(151 221.648)" fill="#06677e"/>
    <path id="Path_118" data-name="Path 118" d="M58.153,68.1c-.08.308.091.457.4.616.183-.673.354-1.335.536-2.009-.16-.057-.331-.126-.5-.194-.148.559-.285,1.073-.422,1.586Z" transform="translate(151 221.648)" fill="#06677e"/>
    <path id="Path_119" data-name="Path 119" d="M26.425,79.72c.582-.091,1.153-.3,1.723-.445a.486.486,0,0,1,.023-.126c-.194-.091-.422-.285-.594-.251-.673.126-1.324.331-1.986.5v.023c.263.091.536.194.822.3Z" transform="translate(151 221.648)" fill="#06677e"/>
    <path id="Path_120" data-name="Path 120" d="M50.267,48.552c.183-.069.457-.08.548-.206.365-.536.673-1.107,1-1.666a.659.659,0,0,0-.08-.091.575.575,0,0,0-.137.023c-.183.057-.388.091-.468.217-.354.514-.639,1.073-.959,1.621a.989.989,0,0,1,.091.114Zm1.472-1.883c-.08.057-.16.114-.228.171C51.591,46.783,51.671,46.726,51.739,46.669Z" transform="translate(151 221.648)" fill="#06677e"/>
    <path id="Path_122" data-name="Path 122" d="M45.656,48.905c.308-.514.6-1.038.913-1.575h-.1c-.171.023-.342.034-.525.057a.478.478,0,0,0-.057.08c-.32.514-.6,1.027-.924,1.6.308.046.548.1.7-.148Z" transform="translate(151 221.648)" fill="#06677e"/>
    <path id="Path_123" data-name="Path 123" d="M43.659,49.008c.285-.468.559-.959.856-1.472l-.673.069c-.3.491-.571.993-.879,1.518.308.1.548.137.7-.1Z" transform="translate(151 221.648)" fill="#06677e"/>
    <path id="Path_124" data-name="Path 124" d="M51.374,48.346c.183-.068.457-.08.536-.205.365-.536.662-1.107.993-1.666-.023-.023-.046-.057-.068-.08l-.411.068a.363.363,0,0,0-.171.1c-.365.525-.662,1.1-.993,1.655.034.034.069.08.1.114Z" transform="translate(151 221.648)" fill="#06677e"/>
    <path id="Path_125" data-name="Path 125" d="M49.228,48.689c.183-.057.445-.068.536-.194a8.439,8.439,0,0,0,.9-1.678c-.24.011-.5.034-.594.171-.342.5-.628,1.05-.936,1.575.034.034.057.08.091.114Z" transform="translate(151 221.648)" fill="#06677e"/>
    <path id="Path_126" data-name="Path 126" d="M48.749,48.609c.32-.525.616-1.05.924-1.575-.034-.034-.057-.08-.091-.114h-.034c-.194.069-.456.1-.548.24-.342.5-.628,1.038-.993,1.666.354-.057.6.023.753-.217Z" transform="translate(151 221.648)" fill="#06677e"/>
    <path id="Path_127" data-name="Path 127" d="M42.666,49.031c.274-.456.536-.913.81-1.392-.217.023-.434.046-.651.057-.1.205-.228.388-.342.593-.148.274-.3.548-.457.845C42.324,49.236,42.529,49.259,42.666,49.031Z" transform="translate(151 221.648)" fill="#06677e"/>
    <path id="Path_128" data-name="Path 128" d="M38.979,49.613c.194-.091.479-.125.582-.285a16.506,16.506,0,0,0,.856-1.438c-.205.011-.422.034-.628.046-.331.5-.616,1.027-.913,1.552.034.034.069.08.1.114Z" transform="translate(151 221.648)" fill="#06677e"/>
    <path id="Path_129" data-name="Path 129" d="M46.078,49.031c.183-.046.468-.034.548-.16.342-.5.639-1.05.993-1.655H47.4c-.114.011-.228.023-.342.046a.4.4,0,0,0-.183.16c-.3.5-.582,1-.867,1.506a1,1,0,0,1,.068.114Z" transform="translate(151 221.648)" fill="#06677e"/>
    <path id="Path_130" data-name="Path 130" d="M47.722,48.711c.285-.5.571-.993.879-1.518-.537-.08-.559-.091-.708.16-.3.479-.559.959-.9,1.552C47.334,48.905,47.573,48.974,47.722,48.711Z" transform="translate(151 221.648)" fill="#06677e"/>
    <path id="Path_131" data-name="Path 131" d="M41.7,49.02c.24-.422.491-.845.753-1.29-.217.023-.434.034-.651.057-.263.457-.525.913-.822,1.438.342-.011.582.057.73-.206Z" transform="translate(151 221.648)" fill="#06677e"/>
    <path id="Path_132" data-name="Path 132" d="M40.68,49.111c.251-.411.491-.833.742-1.29-.217.023-.422.034-.639.057-.274.457-.536.924-.845,1.438C40.3,49.362,40.532,49.351,40.68,49.111Z" transform="translate(151 221.648)" fill="#06677e"/>
    <path id="Path_133" data-name="Path 133" d="M29.792,76.787c.16.046.308.08.525.137,0-.548.011-1.05,0-1.552v-.046c-.171-.046-.342-.1-.514-.148v1.609Z" transform="translate(151 221.648)" fill="#06677e"/>
    <path id="Path_134" data-name="Path 134" d="M29.461,75.144v-.057c-.183-.057-.354-.114-.536-.16v1.358c0,.3.205.331.536.342Z" transform="translate(151 221.648)" fill="#06677e"/>
    <path id="Path_135" data-name="Path 135" d="M44.686,48.905c.285-.479.559-.959.833-1.438,0-.011-.011-.023-.023-.034-.183.023-.377.046-.571.057A12.566,12.566,0,0,0,44,49.077C44.537,49.122,44.549,49.122,44.686,48.905Z" transform="translate(151 221.648)" fill="#06677e"/>
    <path id="Path_136" data-name="Path 136" d="M27.772,76.022V74.539c-.171-.057-.354-.114-.525-.183v1.267c0,.3.16.411.525.388Z" transform="translate(151 221.648)" fill="#06677e"/>
    <path id="Path_137" data-name="Path 137" d="M31.983,77.369c0-.491.011-.959,0-1.415a.608.608,0,0,0-.011-.16l-.525-.137v1.29c0,.32.148.457.548.422Z" transform="translate(151 221.648)" fill="#06677e"/>
    <path id="Path_138" data-name="Path 138" d="M30.625,75.429v1.609l.525.16c0-.559.011-1.027,0-1.5v-.126l-.514-.137Z" transform="translate(151 221.648)" fill="#06677e"/>
    <path id="Path_139" data-name="Path 139" d="M26.939,75.714V74.265c-.183-.068-.365-.125-.548-.194v1.2c0,.377.023.377.548.457Z" transform="translate(151 221.648)" fill="#06677e"/>
    <path id="Path_140" data-name="Path 140" d="M33.17,76.08v1.632c.171.034.308.057.525.091,0-.525.011-1,0-1.484a.267.267,0,0,0-.023-.137c-.171-.034-.331-.08-.5-.114Z" transform="translate(151 221.648)" fill="#06677e"/>
    <path id="Path_141" data-name="Path 141" d="M26.106,75.395c0-.5.011-.97,0-1.438-.183-.068-.365-.137-.536-.194v1.21c0,.308.171.4.548.434Z" transform="translate(151 221.648)" fill="#06677e"/>
    <path id="Path_142" data-name="Path 142" d="M34.072,76.285h-.091v1.324c0,.32.194.377.548.32V76.616a.821.821,0,0,0-.023-.262c-.137-.034-.285-.057-.422-.091Z" transform="translate(151 221.648)" fill="#06677e"/>
    <path id="Path_143" data-name="Path 143" d="M25.261,75.03V73.649c-.183-.068-.354-.137-.536-.205V74.63c0,.331.194.411.536.411Z" transform="translate(151 221.648)" fill="#06677e"/>
    <path id="Path_144" data-name="Path 144" d="M34.848,76.456v1.621c.171.023.308.046.525.08v-1.3a.543.543,0,0,0-.046-.308C35.168,76.513,35.008,76.479,34.848,76.456Z" transform="translate(151 221.648)" fill="#06677e"/>
    <path id="Path_145" data-name="Path 145" d="M57.468,67.372c-.091.32,0,.514.377.639.137-.514.285-1,.411-1.507,0-.046.011-.08.011-.114-.148-.057-.308-.125-.479-.183C57.685,66.6,57.583,66.984,57.468,67.372Z" transform="translate(151 221.648)" fill="#06677e"/>
    <path id="Path_146" data-name="Path 146" d="M37.884,78.533V76.981c-.171-.023-.354-.057-.536-.08v1.313C37.347,78.545,37.53,78.59,37.884,78.533Z" transform="translate(151 221.648)" fill="#06677e"/>
    <path id="Path_147" data-name="Path 147" d="M23.561,74.276V72.964c-.183-.08-.377-.16-.559-.228v1.027c0,.342.171.491.571.513Z" transform="translate(151 221.648)" fill="#06677e"/>
    <path id="Path_148" data-name="Path 148" d="M38.192,78.362c0,.308.205.331.514.285V77.107c-.068,0-.137-.023-.217-.023s-.194-.011-.308-.023v1.312Z" transform="translate(151 221.648)" fill="#06677e"/>
    <path id="Path_149" data-name="Path 149" d="M22.716,73.843V72.61l-.548-.24v.981c0,.342.16.491.548.479Z" transform="translate(151 221.648)" fill="#06677e"/>
    <path id="Path_150" data-name="Path 150" d="M39.059,77.244v1.449c.16.023.285.046.514.08,0-.468.011-.856,0-1.244C39.562,77.175,39.55,77.175,39.059,77.244Z" transform="translate(151 221.648)" fill="#06677e"/>
    <path id="Path_151" data-name="Path 151" d="M29.062,79.812s.057-.023.08-.034a1.117,1.117,0,0,0-.673-.262,14.36,14.36,0,0,0-1.461.365c.046.034.091.057.137.091.183.057.365.126.548.183a3.069,3.069,0,0,0,1.358-.342Z" transform="translate(151 221.648)" fill="#06677e"/>
    <path id="Path_153" data-name="Path 153" d="M41.6,77.461v1.415h.468V77.461Z" transform="translate(151 221.648)" fill="#06677e"/>
    <path id="Path_154" data-name="Path 154" d="M56.749,66.8c-.114.342.046.5.411.593.114-.445.228-.867.342-1.3-.16-.068-.331-.126-.5-.194-.091.331-.16.628-.251.913Z" transform="translate(151 221.648)" fill="#06677e"/>
    <path id="Path_155" data-name="Path 155" d="M28.605,76.308v-1.5l-.514-.171v1.313c0,.3.183.388.514.342Z" transform="translate(151 221.648)" fill="#06677e"/>
    <path id="Path_156" data-name="Path 156" d="M64.019,72.245c-.3,1.107-.559,2.111-.833,3.1.057-.068.1-.148.16-.228l.7-2.773a.518.518,0,0,0-.011-.114Z" transform="translate(151 221.648)" fill="#06677e"/>
    <path id="Path_157" data-name="Path 157" d="M63.357,75.1a4.967,4.967,0,0,0,.685-2.671,11.667,11.667,0,0,1-.559,2.237C63.437,74.813,63.392,74.95,63.357,75.1Z" transform="translate(151 221.648)" fill="#06677e"/>
    <path id="Path_158" data-name="Path 158" d="M32.314,75.874v1.415c0,.3.228.3.5.285V76.1a.188.188,0,0,0-.023-.114c-.16-.034-.319-.08-.491-.126Z" transform="translate(151 221.648)" fill="#06677e"/>
    <path id="Path_160" data-name="Path 160" d="M24.394,74.653V73.306c-.171-.068-.342-.137-.5-.205v1.21C23.892,74.585,24.1,74.642,24.394,74.653Z" transform="translate(151 221.648)" fill="#06677e"/>
    <path id="Path_161" data-name="Path 161" d="M43.294,77.54v1.381c.194-.023.331-.034.468-.046v-1.3C43.613,77.575,43.5,77.552,43.294,77.54Z" transform="translate(151 221.648)" fill="#06677e"/>
    <path id="Path_162" data-name="Path 162" d="M42.951,77.837c0-.342-.205-.354-.5-.262V78.9h.514V77.837Z" transform="translate(151 221.648)" fill="#06677e"/>
    <path id="Path_163" data-name="Path 163" d="M36.537,76.776h-.023v1.335c0,.285.171.365.514.3V77.061a.293.293,0,0,0-.08-.217Z" transform="translate(151 221.648)" fill="#06677e"/>
    <path id="Path_164" data-name="Path 164" d="M35.773,76.639a.367.367,0,0,0-.091.011v1.335c0,.285.183.354.5.285V76.9a.281.281,0,0,0-.057-.194Z" transform="translate(151 221.648)" fill="#06677e"/>
    <path id="Path_165" data-name="Path 165" d="M56.008,66.287c-.091.365-.08.365.422.536.091-.342.183-.685.274-1.05-.16-.068-.331-.125-.491-.194-.08.251-.137.479-.194.7Z" transform="translate(151 221.648)" fill="#06677e"/>
    <path id="Path_167" data-name="Path 167" d="M41,78.876c.217,0,.251-.148.251-.32v-.879c0-.285-.183-.365-.514-.3v1.187c0,.183.068.308.263.3Z" transform="translate(151 221.648)" fill="#06677e"/>
    <path id="Path_168" data-name="Path 168" d="M40.383,78.75V77.358a.481.481,0,0,0-.171-.068h-.319V78.5c0,.342.205.365.491.262Z" transform="translate(151 221.648)" fill="#06677e"/>
    <path id="Path_172" data-name="Path 172" d="M46.329,77.985c-.023-.354-.034-.365-.514-.285v1.1h.514Z" transform="translate(151 221.648)" fill="#06677e"/>
    <path id="Path_173" data-name="Path 173" d="M55.654,66.413c.091-.308.183-.559.24-.822,0-.046.023-.08.023-.114-.16-.068-.32-.125-.491-.194-.308.81-.285.845.217,1.13Z" transform="translate(151 221.648)" fill="#06677e"/>
    <path id="Path_174" data-name="Path 174" d="M48.007,78.328a1.917,1.917,0,0,0-.023-.514.36.36,0,0,0-.262-.217.339.339,0,0,0-.251.228,6.508,6.508,0,0,0-.011.822c.377.091.548,0,.536-.319Z" transform="translate(151 221.648)" fill="#06677e"/>
    <path id="Path_175" data-name="Path 175" d="M47.163,78.408c.011-.24,0-.491,0-.708-.342-.126-.536-.1-.548.24v.787C47.14,78.75,47.14,78.75,47.163,78.408Z" transform="translate(151 221.648)" fill="#06677e"/>
    <path id="Path_176" data-name="Path 176" d="M44.618,78.625a6.377,6.377,0,0,0-.011-.81.339.339,0,0,0-.251-.228.325.325,0,0,0-.228.24c-.023.342,0,.685,0,1.039.3.08.491.068.5-.24Z" transform="translate(151 221.648)" fill="#06677e"/>
    <path id="Path_178" data-name="Path 178" d="M53.634,65.443c.194.068.331.114.514.171.068-.274.137-.514.205-.753-.171-.069-.331-.137-.5-.194-.068.262-.137.514-.217.787Z" transform="translate(151 221.648)" fill="#06677e"/>
    <path id="Path_179" data-name="Path 179" d="M30.237,80.405a1.2,1.2,0,0,0-1.586.023,1.521,1.521,0,0,0,1.6-.023Z" transform="translate(151 221.648)" fill="#06677e"/>
    <path id="Path_180" data-name="Path 180" d="M46.489,62.738c.171.069.308.114.491.194.08-.32.16-.593.24-.89-.16-.069-.331-.125-.479-.194C46.649,62.167,46.569,62.441,46.489,62.738Z" transform="translate(151 221.648)" fill="#06677e"/>
    <path id="Path_181" data-name="Path 181" d="M45.69,62.487c.217.046.354.08.525.126.08-.308.16-.582.24-.879-.171-.069-.331-.137-.5-.194-.091.319-.16.593-.263.959Z" transform="translate(151 221.648)" fill="#06677e"/>
    <path id="Path_182" data-name="Path 182" d="M45.2,77.643s-.114.023-.206.046v1.164q.434-.012.468-.274C45.542,78.008,45.462,77.712,45.2,77.643Z" transform="translate(151 221.648)" fill="#06677e"/>
    <path id="Path_183" data-name="Path 183" d="M54.512,65.42c-.091.388-.091.388.411.5.057-.217.137-.434.183-.662a.215.215,0,0,1,.023-.091c-.16-.068-.32-.126-.479-.194-.046.148-.091.3-.125.445Z" transform="translate(151 221.648)" fill="#06677e"/>
    <path id="Path_184" data-name="Path 184" d="M49.285,62.863l-.171-.069a.541.541,0,0,1-.034.08c-.034.114-.068.217-.091.331q-.08.377.434.5c.057-.24.114-.468.171-.719C49.491,62.943,49.388,62.909,49.285,62.863Z" transform="translate(151 221.648)" fill="#06677e"/>
    <path id="Path_185" data-name="Path 185" d="M51.283,64.45c.183.069.32.114.5.171.069-.251.125-.479.183-.708-.16-.069-.32-.126-.491-.194-.069.251-.137.479-.206.73Z" transform="translate(151 221.648)" fill="#06677e"/>
    <path id="Path_186" data-name="Path 186" d="M45.405,62.3c.08-.3.16-.582.24-.89-.16-.057-.308-.125-.445-.183C44.857,62.042,44.869,62.087,45.405,62.3Z" transform="translate(151 221.648)" fill="#06677e"/>
    <path id="Path_187" data-name="Path 187" d="M47.3,63.012c.171.057.285.1.5.183.08-.308.148-.571.217-.845-.16-.069-.331-.125-.491-.194C47.448,62.453,47.38,62.727,47.3,63.012Z" transform="translate(151 221.648)" fill="#06677e"/>
    <path id="Path_188" data-name="Path 188" d="M48.1,63.286c.148.046.274.08.411.125-.011-.069-.034-.137-.046-.194.011.069.034.137.046.194.034,0,.069.023.1.023.069-.274.125-.525.183-.776-.16-.057-.308-.126-.468-.183-.08.274-.148.536-.228.822Z" transform="translate(151 221.648)" fill="#06677e"/>
    <path id="Path_189" data-name="Path 189" d="M50.5,64.119l.479.194c.068-.251.137-.479.205-.719-.171-.068-.331-.137-.5-.194C50.609,63.651,50.552,63.879,50.5,64.119Z" transform="translate(151 221.648)" fill="#06677e"/>
    <path id="Path_190" data-name="Path 190" d="M52.139,64.461c-.1.319.068.422.388.445a1.1,1.1,0,0,0,.1-.171c.046-.125.08-.262.114-.388a.334.334,0,0,1,.023-.1c-.16-.068-.331-.126-.491-.194-.046.137-.08.285-.125.422Z" transform="translate(151 221.648)" fill="#06677e"/>
    <path id="Path_191" data-name="Path 191" d="M53.326,65.283c.08-.262.148-.5.217-.742-.16-.057-.308-.125-.468-.183-.263.571-.205.7.251.936Z" transform="translate(151 221.648)" fill="#06677e"/>
    <path id="Path_192" data-name="Path 192" d="M49.776,63.548c-.068.32-.023.354.445.377.057-.205.114-.411.171-.639-.171-.069-.331-.126-.491-.194-.046.16-.091.308-.126.445Z" transform="translate(151 221.648)" fill="#06677e"/>
    <path id="Path_193" data-name="Path 193" d="M44.4,60.935c-.3.719-.285.719.228.97.069-.205.126-.365.171-.525a.607.607,0,0,0,.023-.308c-.114-.046-.217-.091-.319-.126A.316.316,0,0,1,44.4,60.935Z" transform="translate(151 221.648)" fill="#06677e"/>
    <path id="Path_194" data-name="Path 194" d="M48.749,77.609c-.468.011-.491.057-.365.9C48.9,78.4,48.932,78.282,48.749,77.609Z" transform="translate(151 221.648)" fill="#06677e"/>
    <path id="Path_196" data-name="Path 196" d="M43.91,61.437c.057-.217.1-.434.16-.65q-.24-.1-.445-.171c-.24.616-.228.628.285.833Z" transform="translate(151 221.648)" fill="#06677e"/>
    <path id="Path_197" data-name="Path 197" d="M31.253,57.671c-.1.16-.205.308-.3.468-.194.354-.183.354.251.559C31.538,58.389,31.356,58.047,31.253,57.671Z" transform="translate(151 221.648)" fill="#06677e"/>
    <path id="Path_199" data-name="Path 199" d="M49.662,77.438c-.183.046-.331.08-.468.114v.65c.263-.034.468-.091.514-.342a1.961,1.961,0,0,0-.034-.422Z" transform="translate(151 221.648)" fill="#06677e"/>
    <path id="Path_200" data-name="Path 200" d="M31.264,80.964l-.89-.08C30.876,81.09,30.99,81.1,31.264,80.964Z" transform="translate(151 221.648)" fill="#06677e"/>
    <path id="Path_201" data-name="Path 201" d="M31.276,80.964a.634.634,0,0,1,.091-.046c-.365-.228-.708-.4-1.118-.091h.023a2.376,2.376,0,0,1,1.016.126Z" transform="translate(151 221.648)" fill="#06677e"/>
    <path id="Path_202" data-name="Path 202" d="M42.928,60.809l.228.1c.046-.171.08-.308.114-.457q-.274-.1-.445-.171A.333.333,0,0,0,42.928,60.809Z" transform="translate(151 221.648)" fill="#06677e"/>
    <path id="Path_203" data-name="Path 203" d="M32.292,81.318c-.125-.023-.251-.046-.365-.068v.034c.125.034.24.069.365.1a.162.162,0,0,1,.023-.069Z" transform="translate(151 221.648)" fill="#06677e"/>
    <path id="Path_204" data-name="Path 204" d="M32.292,81.307c-.114-.034-.24-.08-.354-.114a.069.069,0,0,1-.011.046C32.052,81.261,32.178,81.284,32.292,81.307Z" transform="translate(151 221.648)" fill="#06677e"/>
    <path id="Path_205" data-name="Path 205" d="M63.255,75.486c.034-.125.069-.251.1-.388,0,0-.011.023-.023.023l-.091.354Z" transform="translate(151 221.648)" fill="#06677e"/>
    <path id="Path_206" data-name="Path 206" d="M63.346,75.132s.011-.023.023-.023c.046-.148.08-.285.125-.434a13.649,13.649,0,0,0,.559-2.237V72.37l-.7,2.773Z" transform="translate(151 221.648)" fill="#06677e"/>
    <path id="Path_207" data-name="Path 207" d="M31.363,80.977a.4.4,0,0,1-.1-.012h.1Z" transform="translate(151 221.648)" fill="#06677e"/>
    <path id="Path_208" data-name="Path 208" d="M30.392,80.888a.8.8,0,0,0-.124-.049.291.291,0,0,0-.1.025Z" transform="translate(151 221.648)" fill="#06677e"/>
    <path id="Path_209" data-name="Path 209" d="M31.264,80.964a2.544,2.544,0,0,0-1.016-.126c.034.011.08.034.114.046l.89.08Z" transform="translate(151 221.648)" fill="#06677e"/>
    <path id="Path_210" data-name="Path 210" d="M100.025,39.1l-1.449,1.381a4.48,4.48,0,0,0-3.321-1.564,3.626,3.626,0,0,0-3.687,3.686,3.954,3.954,0,0,0,.468,1.929,3.46,3.46,0,0,0,1.335,1.324,3.856,3.856,0,0,0,1.917.479,4.024,4.024,0,0,0,1.644-.331,6.17,6.17,0,0,0,1.644-1.221l1.4,1.461a7.756,7.756,0,0,1-2.271,1.632,6.1,6.1,0,0,1-2.442.456,5.8,5.8,0,0,1-5.022-8.617,5.453,5.453,0,0,1,2.1-2.032,5.916,5.916,0,0,1,2.956-.765,6.244,6.244,0,0,1,2.591.571,6.175,6.175,0,0,1,2.145,1.609Z" transform="translate(151 221.648)" fill="#049dbe"/>
    <path id="Path_211" data-name="Path 211" d="M106.964,36.92a5.4,5.4,0,0,1,3.961,1.666,5.817,5.817,0,0,1,.022,8.1,5.409,5.409,0,0,1-3.971,1.643,5.486,5.486,0,0,1-4.063-1.689,5.7,5.7,0,0,1,1.209-8.948,5.532,5.532,0,0,1,2.842-.765Zm-.023,2.02a3.417,3.417,0,0,0-2.533,1.05,3.649,3.649,0,0,0-1.028,2.671,3.5,3.5,0,0,0,1.29,2.853,3.546,3.546,0,0,0,2.306.822,3.392,3.392,0,0,0,2.511-1.061,3.838,3.838,0,0,0,0-5.25,3.392,3.392,0,0,0-2.534-1.073Z" transform="translate(151 221.648)" fill="#049dbe"/>
    <path id="Path_212" data-name="Path 212" d="M114.68,37.194h2.191a7.245,7.245,0,0,1,2.568.319,2.663,2.663,0,0,1,1.233,1.073,3.3,3.3,0,0,1,.468,1.769,3,3,0,0,1-.514,1.792,3.057,3.057,0,0,1-1.552,1.084l2.579,4.828h-2.26l-2.442-4.6h-.194v4.6h-2.066V37.194Zm2.065,4.246h.651a2.536,2.536,0,0,0,1.358-.263.961.961,0,0,0,.377-.856,1.007,1.007,0,0,0-.183-.616,1.071,1.071,0,0,0-.491-.377,3.611,3.611,0,0,0-1.129-.114h-.571v2.226Z" transform="translate(151 221.648)" fill="#049dbe"/>
    <path id="Path_213" data-name="Path 213" d="M123.319,37.193h5.935v2.02h-3.88v1.963h3.88v1.986h-3.88v2.853h3.88v2.031h-5.935V37.193Z" transform="translate(151 221.648)" fill="#049dbe"/>
    <path id="Path_214" data-name="Path 214" d="M141.112,38.677l-1.529,1.347a2.148,2.148,0,0,0-1.643-1.118.965.965,0,0,0-.662.217.645.645,0,0,0-.263.491.807.807,0,0,0,.183.514,13.712,13.712,0,0,0,1.518,1.392c.787.662,1.267,1.073,1.438,1.244a4.291,4.291,0,0,1,.89,1.21,3.071,3.071,0,0,1,.263,1.267,2.879,2.879,0,0,1-.925,2.2,3.353,3.353,0,0,1-2.408.867,3.585,3.585,0,0,1-2.02-.571,4.466,4.466,0,0,1-1.473-1.792l1.735-1.05c.525.959,1.13,1.438,1.8,1.438a1.322,1.322,0,0,0,.89-.308.932.932,0,0,0,.365-.719,1.243,1.243,0,0,0-.274-.742,7.242,7.242,0,0,0-1.21-1.13A12.124,12.124,0,0,1,135.5,41.2a2.861,2.861,0,0,1-.513-1.564,2.572,2.572,0,0,1,.856-1.94,2.983,2.983,0,0,1,2.122-.81,3.387,3.387,0,0,1,1.553.377,5.651,5.651,0,0,1,1.6,1.37Z" transform="translate(151 221.648)" fill="#049dbe"/>
    <path id="Path_215" data-name="Path 215" d="M148.4,36.92a5.4,5.4,0,0,1,3.961,1.666,5.816,5.816,0,0,1,.023,8.1,5.412,5.412,0,0,1-3.972,1.643,5.489,5.489,0,0,1-4.063-1.689,5.7,5.7,0,0,1,1.21-8.948,5.529,5.529,0,0,1,2.841-.765Zm-.022,2.02a3.419,3.419,0,0,0-2.534,1.05,3.648,3.648,0,0,0-1.027,2.671,3.494,3.494,0,0,0,1.289,2.853,3.546,3.546,0,0,0,2.306.822,3.391,3.391,0,0,0,2.511-1.061,3.838,3.838,0,0,0,0-5.25,3.391,3.391,0,0,0-2.534-1.073Z" transform="translate(151 221.648)" fill="#049dbe"/>
    <path id="Path_216" data-name="Path 216" d="M155.984,37.194h2.065v8.891h3.013v1.974h-5.078Z" transform="translate(151 221.648)" fill="#049dbe"/>
    <path id="Path_217" data-name="Path 217" d="M162.558,37.194h2.077v7.019a3.743,3.743,0,0,0,.16,1.29,1.278,1.278,0,0,0,.525.6,1.837,1.837,0,0,0,1.814-.023,1.333,1.333,0,0,0,.548-.639,4.737,4.737,0,0,0,.149-1.484V37.194h2.077v6.471a9.213,9.213,0,0,1-.183,2.271,3.129,3.129,0,0,1-.707,1.221,3.43,3.43,0,0,1-1.2.879,4,4,0,0,1-1.575.285,3.88,3.88,0,0,1-2.054-.536,3.173,3.173,0,0,1-1.256-1.358,7.192,7.192,0,0,1-.376-2.762Z" transform="translate(151 221.648)" fill="#049dbe"/>
    <path id="Path_218" data-name="Path 218" d="M171.243,37.194h6v2.043h-1.974v8.822h-2.1V39.236h-1.929Z" transform="translate(151 221.648)" fill="#049dbe"/>
    <path id="Path_219" data-name="Path 219" d="M178.525,37.194h2.054V48.059h-2.054Z" transform="translate(151 221.648)" fill="#049dbe"/>
    <path id="Path_220" data-name="Path 220" d="M188.032,36.92a5.4,5.4,0,0,1,3.96,1.666,5.816,5.816,0,0,1,.023,8.1,5.412,5.412,0,0,1-3.972,1.643,5.489,5.489,0,0,1-4.063-1.689,5.8,5.8,0,0,1-.867-6.882,5.712,5.712,0,0,1,4.919-2.83Zm-.023,2.02a3.42,3.42,0,0,0-2.534,1.05,3.648,3.648,0,0,0-1.027,2.671,3.5,3.5,0,0,0,1.29,2.853,3.543,3.543,0,0,0,2.3.822,3.389,3.389,0,0,0,2.511-1.061,3.836,3.836,0,0,0,0-5.25,3.391,3.391,0,0,0-2.534-1.073Z" transform="translate(151 221.648)" fill="#049dbe"/>
    <path id="Path_221" data-name="Path 221" d="M195.61,37.194H197.6l4.645,7.145V37.194h2.066V48.059h-1.986l-4.645-7.122v7.122H195.61Z" transform="translate(151 221.648)" fill="#049dbe"/>
    <path id="Path_222" data-name="Path 222" d="M212.49,38.677l-1.529,1.347a2.149,2.149,0,0,0-1.644-1.118.966.966,0,0,0-.662.217.647.647,0,0,0-.262.491.812.812,0,0,0,.182.514,13.915,13.915,0,0,0,1.518,1.392c.788.662,1.267,1.073,1.438,1.244a4.3,4.3,0,0,1,.891,1.21,3.07,3.07,0,0,1,.262,1.267,2.879,2.879,0,0,1-.924,2.2,3.357,3.357,0,0,1-2.408.867,3.588,3.588,0,0,1-2.021-.571,4.472,4.472,0,0,1-1.472-1.792l1.735-1.05c.525.959,1.13,1.438,1.8,1.438a1.318,1.318,0,0,0,.89-.308.93.93,0,0,0,.366-.719,1.249,1.249,0,0,0-.274-.742,7.242,7.242,0,0,0-1.21-1.13,12.091,12.091,0,0,1-2.294-2.237,2.863,2.863,0,0,1-.514-1.564,2.575,2.575,0,0,1,.856-1.94,2.987,2.987,0,0,1,2.123-.81,3.38,3.38,0,0,1,1.552.377,5.639,5.639,0,0,1,1.6,1.37Z" transform="translate(151 221.648)" fill="#049dbe"/>
    <path id="Path_223" data-name="Path 223" d="M89.708,58.844h4.234v.719H90.45V61.88h3.458V62.6H90.45v2.9h3.458v.719h-4.2V58.844Z" transform="translate(151 221.648)" fill="#fff"/>
    <path id="Path_224" data-name="Path 224" d="M95.095,60.773H95.8v.981a3.074,3.074,0,0,1,.936-.845,2.2,2.2,0,0,1,1.118-.274,1.943,1.943,0,0,1,1.084.308,1.833,1.833,0,0,1,.7.833,4.5,4.5,0,0,1,.228,1.643v2.808h-.708v-2.6a5.921,5.921,0,0,0-.08-1.256,1.364,1.364,0,0,0-.468-.81,1.415,1.415,0,0,0-.9-.274,1.705,1.705,0,0,0-1.141.422,1.981,1.981,0,0,0-.662,1.05,7.1,7.1,0,0,0-.1,1.484v2h-.708V60.773Z" transform="translate(151 221.648)" fill="#fff"/>
    <path id="Path_225" data-name="Path 225" d="M106.074,60.773h.708v4.348a5,5,0,0,1-.206,1.678,2.192,2.192,0,0,1-.958,1.164,3.14,3.14,0,0,1-1.644.411,3.992,3.992,0,0,1-1.267-.194,2.4,2.4,0,0,1-.913-.536,3.235,3.235,0,0,1-.65-.981h.764a2,2,0,0,0,.8.8,2.583,2.583,0,0,0,1.221.263,2.433,2.433,0,0,0,1.21-.274,1.692,1.692,0,0,0,.708-.673,2.9,2.9,0,0,0,.217-1.312v-.285a2.769,2.769,0,0,1-2.192,1.05,2.826,2.826,0,0,1-1.415-.377,2.638,2.638,0,0,1-1.027-1,2.845,2.845,0,0,1,.011-2.808A2.834,2.834,0,0,1,102.479,61a2.7,2.7,0,0,1,1.4-.377,2.569,2.569,0,0,1,1.141.251,3.208,3.208,0,0,1,1.027.833v-.947ZM104,61.31a2.19,2.19,0,0,0-1.107.285,2.063,2.063,0,0,0-.8.8,2.2,2.2,0,0,0-.3,1.107,2,2,0,0,0,.605,1.484,2.391,2.391,0,0,0,3.127,0,2.082,2.082,0,0,0,.594-1.529,2.249,2.249,0,0,0-.274-1.107,1.973,1.973,0,0,0-.765-.765,2.186,2.186,0,0,0-1.073-.285Z" transform="translate(151 221.648)" fill="#fff"/>
    <path id="Path_226" data-name="Path 226" d="M108.517,58.525a.582.582,0,0,1,0,1.164.519.519,0,0,1-.4-.171.607.607,0,0,1-.171-.411.56.56,0,0,1,.171-.411A.553.553,0,0,1,108.517,58.525Zm-.354,2.248h.707v5.456h-.707Z" transform="translate(151 221.648)" fill="#fff"/>
    <path id="Path_227" data-name="Path 227" d="M110.331,60.773h.708v.981a3.064,3.064,0,0,1,.936-.845,2.194,2.194,0,0,1,1.118-.274,1.941,1.941,0,0,1,1.084.308,1.836,1.836,0,0,1,.7.833,4.506,4.506,0,0,1,.228,1.643v2.808h-.708v-2.6a5.927,5.927,0,0,0-.08-1.256,1.36,1.36,0,0,0-.468-.81,1.413,1.413,0,0,0-.9-.274,1.708,1.708,0,0,0-1.142.422,1.974,1.974,0,0,0-.661,1.05,7.055,7.055,0,0,0-.1,1.484v2h-.708V60.773Z" transform="translate(151 221.648)" fill="#fff"/>
    <path id="Path_228" data-name="Path 228" d="M121.2,64.414l.594.308a3.454,3.454,0,0,1-.673.924,2.8,2.8,0,0,1-.856.536,2.926,2.926,0,0,1-1.085.183,2.615,2.615,0,0,1-2.088-.879,2.951,2.951,0,0,1-.754-1.975,2.908,2.908,0,0,1,.64-1.849,2.614,2.614,0,0,1,2.168-1.039,2.7,2.7,0,0,1,2.226,1.061,2.973,2.973,0,0,1,.605,1.872h-4.92a2.242,2.242,0,0,0,.6,1.564,1.914,1.914,0,0,0,1.45.6,2.21,2.21,0,0,0,.81-.148,2.166,2.166,0,0,0,.674-.388,3.162,3.162,0,0,0,.593-.776Zm0-1.472a2.282,2.282,0,0,0-.41-.9,1.881,1.881,0,0,0-.708-.536,2.182,2.182,0,0,0-.924-.206,2.01,2.01,0,0,0-1.381.514,2.342,2.342,0,0,0-.64,1.13H121.2Z" transform="translate(151 221.648)" fill="#fff"/>
    <path id="Path_229" data-name="Path 229" d="M127.885,64.414l.593.308a3.454,3.454,0,0,1-.673.924,2.786,2.786,0,0,1-.856.536,2.924,2.924,0,0,1-1.084.183,2.616,2.616,0,0,1-2.089-.879,2.95,2.95,0,0,1-.753-1.975,2.913,2.913,0,0,1,.639-1.849,2.614,2.614,0,0,1,2.168-1.039,2.7,2.7,0,0,1,2.226,1.061,2.973,2.973,0,0,1,.6,1.872h-4.908a2.242,2.242,0,0,0,.605,1.564,1.914,1.914,0,0,0,1.45.6,2.217,2.217,0,0,0,.81-.148,2.042,2.042,0,0,0,.673-.388A3.162,3.162,0,0,0,127.885,64.414Zm0-1.472a2.3,2.3,0,0,0-.411-.9,1.972,1.972,0,0,0-.708-.536,2.182,2.182,0,0,0-.924-.206,2.011,2.011,0,0,0-1.381.514,2.333,2.333,0,0,0-.639,1.13h4.063Z" transform="translate(151 221.648)" fill="#fff"/>
    <path id="Path_230" data-name="Path 230" d="M129.7,60.773h.719v.8a2.682,2.682,0,0,1,.674-.708,1.246,1.246,0,0,1,1.369-.046l-.365.594a.9.9,0,0,0-.377-.091,1,1,0,0,0-.673.285,1.847,1.847,0,0,0-.5.89,8.365,8.365,0,0,0-.126,1.883v1.849H129.7Z" transform="translate(151 221.648)" fill="#fff"/>
    <path id="Path_231" data-name="Path 231" d="M133.294,58.525a.582.582,0,0,1,0,1.164.535.535,0,0,1-.4-.171.579.579,0,0,1,0-.822A.553.553,0,0,1,133.294,58.525Zm-.353,2.248h.707v5.456h-.707Z" transform="translate(151 221.648)" fill="#fff"/>
    <path id="Path_232" data-name="Path 232" d="M135.109,60.773h.708v.981a3.064,3.064,0,0,1,.936-.845,2.315,2.315,0,0,1,1.118-.274,1.941,1.941,0,0,1,1.084.308,1.836,1.836,0,0,1,.7.833,4.505,4.505,0,0,1,.228,1.643v2.808h-.7v-2.6a5.927,5.927,0,0,0-.08-1.256,1.365,1.365,0,0,0-.468-.81,1.416,1.416,0,0,0-.9-.274,1.705,1.705,0,0,0-1.141.422,1.982,1.982,0,0,0-.662,1.05,7.055,7.055,0,0,0-.1,1.484v2h-.707V60.785Z" transform="translate(151 221.648)" fill="#fff"/>
    <path id="Path_233" data-name="Path 233" d="M146.089,60.773h.7v4.348a5,5,0,0,1-.206,1.678,2.192,2.192,0,0,1-.958,1.164,3.14,3.14,0,0,1-1.644.411,3.992,3.992,0,0,1-1.267-.194,2.4,2.4,0,0,1-.913-.536,3.472,3.472,0,0,1-.65-.981h.764a1.953,1.953,0,0,0,.811.8,2.611,2.611,0,0,0,1.221.263,2.433,2.433,0,0,0,1.21-.274,1.683,1.683,0,0,0,.707-.673,3.065,3.065,0,0,0,.217-1.312v-.285a2.769,2.769,0,0,1-2.191,1.05,2.826,2.826,0,0,1-1.415-.377,2.641,2.641,0,0,1-1.028-1,2.842,2.842,0,0,1,.012-2.808,2.822,2.822,0,0,1,2.442-1.415,2.573,2.573,0,0,1,1.142.251,3.219,3.219,0,0,1,1.027.833v-.947Zm-2.078.536a2.2,2.2,0,0,0-1.107.285,2.07,2.07,0,0,0-.8.8,2.193,2.193,0,0,0-.285,1.107,2,2,0,0,0,.6,1.484,2.391,2.391,0,0,0,3.127,0,2.082,2.082,0,0,0,.594-1.529,2.249,2.249,0,0,0-.274-1.107,1.973,1.973,0,0,0-.765-.765,2.186,2.186,0,0,0-1.073-.285Z" transform="translate(151 221.648)" fill="#fff"/>
    <path id="Path_234" data-name="Path 234" d="M158.13,60.214l-.583.445a3.15,3.15,0,0,0-1.152-.947,3.364,3.364,0,0,0-1.484-.32,3.224,3.224,0,0,0-1.632.422,3.026,3.026,0,0,0-1.164,1.141,3.185,3.185,0,0,0-.411,1.609,3,3,0,0,0,.924,2.248,3.2,3.2,0,0,0,2.34.9,3.264,3.264,0,0,0,2.591-1.21l.582.445a3.594,3.594,0,0,1-1.381,1.084,4.378,4.378,0,0,1-1.838.388,3.792,3.792,0,0,1-3.994-3.915,3.635,3.635,0,0,1,1.141-2.728,3.926,3.926,0,0,1,2.853-1.107,4.21,4.21,0,0,1,1.872.411,3.615,3.615,0,0,1,1.37,1.141Z" transform="translate(151 221.648)" fill="#fff"/>
    <path id="Path_235" data-name="Path 235" d="M162.079,60.625a2.7,2.7,0,0,1,2.088.913,2.847,2.847,0,0,1,.753,1.974,2.81,2.81,0,0,1-.8,2,2.669,2.669,0,0,1-2.042.856,2.7,2.7,0,0,1-2.055-.856,2.915,2.915,0,0,1-.046-3.96,2.687,2.687,0,0,1,2.1-.913Zm0,.685a2.03,2.03,0,0,0-1.507.651,2.164,2.164,0,0,0-.628,1.564,2.194,2.194,0,0,0,.286,1.107,1.982,1.982,0,0,0,.776.787,2.237,2.237,0,0,0,2.145,0,2.055,2.055,0,0,0,.776-.787,2.194,2.194,0,0,0,.286-1.107,2.145,2.145,0,0,0-.628-1.564A2.03,2.03,0,0,0,162.079,61.31Z" transform="translate(151 221.648)" fill="#fff"/>
    <path id="Path_236" data-name="Path 236" d="M166.221,60.773h.708v.981a3.075,3.075,0,0,1,.936-.845,2.318,2.318,0,0,1,1.118-.274,1.946,1.946,0,0,1,1.085.308,1.84,1.84,0,0,1,.7.833,4.506,4.506,0,0,1,.228,1.643v2.808h-.7v-2.6a5.927,5.927,0,0,0-.08-1.256,1.365,1.365,0,0,0-.468-.81,1.414,1.414,0,0,0-.9-.274,1.705,1.705,0,0,0-1.141.422,1.982,1.982,0,0,0-.662,1.05,7.127,7.127,0,0,0-.1,1.484v2h-.707V60.785Z" transform="translate(151 221.648)" fill="#fff"/>
    <path id="Path_237" data-name="Path 237" d="M175.238,61.367l-.457.468a1.621,1.621,0,0,0-1.107-.548.83.83,0,0,0-.582.228.706.706,0,0,0-.24.525.75.75,0,0,0,.206.5,3.027,3.027,0,0,0,.844.582,3.1,3.1,0,0,1,1.062.788,1.416,1.416,0,0,1,.274.856,1.533,1.533,0,0,1-.48,1.141,1.625,1.625,0,0,1-1.175.468,2.048,2.048,0,0,1-.9-.205,1.821,1.821,0,0,1-.707-.571l.445-.5a1.546,1.546,0,0,0,1.141.6,1.01,1.01,0,0,0,.719-.274.837.837,0,0,0,.1-1.176,3.429,3.429,0,0,0-.89-.582,2.713,2.713,0,0,1-1.005-.753,1.454,1.454,0,0,1-.262-.845,1.386,1.386,0,0,1,.422-1.039,1.481,1.481,0,0,1,1.073-.411A2.2,2.2,0,0,1,175.238,61.367Z" transform="translate(151 221.648)" fill="#fff"/>
    <path id="Path_238" data-name="Path 238" d="M176.39,60.773h.708v2.545a5.41,5.41,0,0,0,.1,1.29,1.48,1.48,0,0,0,.57.787,1.752,1.752,0,0,0,1.016.3,1.646,1.646,0,0,0,.993-.285,1.391,1.391,0,0,0,.559-.742,5.347,5.347,0,0,0,.1-1.335V60.785h.719v2.682a4.3,4.3,0,0,1-.262,1.7,1.956,1.956,0,0,1-.8.89,2.5,2.5,0,0,1-1.324.319,2.577,2.577,0,0,1-1.336-.319,1.982,1.982,0,0,1-.8-.9,4.5,4.5,0,0,1-.263-1.746V60.785Z" transform="translate(151 221.648)" fill="#fff"/>
    <path id="Path_239" data-name="Path 239" d="M182.622,58.662h.708v7.567h-.708Z" transform="translate(151 221.648)" fill="#fff"/>
    <path id="Path_240" data-name="Path 240" d="M185.4,58.742h.7v2.031h1.118v.6h-1.118v4.851h-.7V61.378h-.958v-.6h.958Z" transform="translate(151 221.648)" fill="#fff"/>
    <path id="Path_241" data-name="Path 241" d="M193.7,60.773v5.455h-.7v-.936a3.147,3.147,0,0,1-.993.81,2.639,2.639,0,0,1-1.2.274,2.6,2.6,0,0,1-1.975-.845,2.819,2.819,0,0,1-.821-2.043,2.731,2.731,0,0,1,.833-2.02,2.691,2.691,0,0,1,1.986-.833,2.568,2.568,0,0,1,1.221.285,2.834,2.834,0,0,1,.959.856v-1h.684Zm-2.807.536a2.114,2.114,0,0,0-1.085.285,2.075,2.075,0,0,0-.787.81,2.212,2.212,0,0,0,0,2.214,2.047,2.047,0,0,0,.8.822,2.11,2.11,0,0,0,1.073.3,2.3,2.3,0,0,0,1.1-.285,2.114,2.114,0,0,0,.8-.788,2.282,2.282,0,0,0,.274-1.118,2.16,2.16,0,0,0-.627-1.587,2.086,2.086,0,0,0-1.541-.639Z" transform="translate(151 221.648)" fill="#fff"/>
    <path id="Path_242" data-name="Path 242" d="M195.291,60.773h.7v.981a3.064,3.064,0,0,1,.936-.845,2.315,2.315,0,0,1,1.118-.274,1.941,1.941,0,0,1,1.084.308,1.836,1.836,0,0,1,.7.833,4.506,4.506,0,0,1,.228,1.643v2.808h-.708v-2.6a5.926,5.926,0,0,0-.08-1.256,1.355,1.355,0,0,0-.468-.81,1.413,1.413,0,0,0-.9-.274,1.705,1.705,0,0,0-1.141.422,1.976,1.976,0,0,0-.662,1.05,7.055,7.055,0,0,0-.1,1.484v2h-.7V60.773Z" transform="translate(151 221.648)" fill="#fff"/>
    <path id="Path_243" data-name="Path 243" d="M206.852,61.9l-.559.342a2.337,2.337,0,0,0-1.974-.959,2.29,2.29,0,0,0-1.655.639A2.088,2.088,0,0,0,202,63.489a2.251,2.251,0,0,0,1.141,1.94,2.434,2.434,0,0,0,1.187.285,2.39,2.39,0,0,0,1.963-.959l.559.365a2.712,2.712,0,0,1-1.05.913,3.324,3.324,0,0,1-1.506.32,2.983,2.983,0,0,1-2.146-.822,2.658,2.658,0,0,1-.856-2,2.906,2.906,0,0,1,.4-1.472,2.72,2.72,0,0,1,1.1-1.061,3.234,3.234,0,0,1,1.564-.377,3.606,3.606,0,0,1,1.05.16,2.634,2.634,0,0,1,.856.434,2.415,2.415,0,0,1,.593.673Z" transform="translate(151 221.648)" fill="#fff"/>
    <path id="Path_244" data-name="Path 244" d="M207.617,60.773h.742l1.872,4.2,1.826-4.2h.753l-3.253,7.453h-.742l1.05-2.408-2.237-5.045Z" transform="translate(151 221.648)" fill="#fff"/>
    <path id="Path_245" data-name="Path 245" d="M89.411,86.555h.639l1.278,4.52,1.8-4.52h.126l1.78,4.52,1.3-4.52h.639l-1.8,6.277H95.06L93.2,88.085l-1.895,4.748h-.114Z" transform="translate(151 221.648)" fill="#049dbe"/>
    <path id="Path_246" data-name="Path 246" d="M101.543,91.292l.5.262a2.822,2.822,0,0,1-.57.788,2.32,2.32,0,0,1-.731.457,2.554,2.554,0,0,1-.913.16,2.258,2.258,0,0,1-1.781-.742,2.549,2.549,0,0,1-.1-3.253,2.225,2.225,0,0,1,1.838-.879,2.3,2.3,0,0,1,1.895.9,2.567,2.567,0,0,1,.514,1.586H98.016A1.844,1.844,0,0,0,98.53,91.9a1.645,1.645,0,0,0,1.233.514,1.964,1.964,0,0,0,.684-.126,1.742,1.742,0,0,0,.571-.331,2.951,2.951,0,0,0,.514-.662Zm0-1.244a1.9,1.9,0,0,0-.354-.765,1.636,1.636,0,0,0-.605-.456,1.88,1.88,0,0,0-.787-.171,1.74,1.74,0,0,0-1.175.434,1.944,1.944,0,0,0-.536.959Z" transform="translate(151 221.648)" fill="#049dbe"/>
    <path id="Path_247" data-name="Path 247" d="M111.667,87.719l-.491.377a2.771,2.771,0,0,0-.982-.81,2.887,2.887,0,0,0-1.255-.274,2.707,2.707,0,0,0-1.393.365,2.6,2.6,0,0,0-1.346,2.34,2.573,2.573,0,0,0,.787,1.917,2.72,2.72,0,0,0,1.986.765,2.8,2.8,0,0,0,2.2-1.027l.491.377a3.129,3.129,0,0,1-1.176.924,3.689,3.689,0,0,1-1.564.331,3.229,3.229,0,0,1-3.4-3.333,3.1,3.1,0,0,1,.97-2.317,3.334,3.334,0,0,1,2.42-.936,3.6,3.6,0,0,1,1.586.342,3.211,3.211,0,0,1,1.165.97Z" transform="translate(151 221.648)" fill="#049dbe"/>
    <path id="Path_248" data-name="Path 248" d="M112.6,88.187h.605v.673a2.2,2.2,0,0,1,.571-.593,1.159,1.159,0,0,1,.628-.194,1.108,1.108,0,0,1,.525.16l-.308.5a.773.773,0,0,0-.32-.08.869.869,0,0,0-.571.24,1.628,1.628,0,0,0-.422.765,6.883,6.883,0,0,0-.114,1.609v1.564h-.6V88.187Z" transform="translate(151 221.648)" fill="#049dbe"/>
    <path id="Path_249" data-name="Path 249" d="M119.336,91.292l.5.262a2.782,2.782,0,0,1-.57.788,2.132,2.132,0,0,1-.731.457,2.55,2.55,0,0,1-.913.16,2.256,2.256,0,0,1-1.78-.742,2.55,2.55,0,0,1-.1-3.253,2.226,2.226,0,0,1,1.838-.879,2.3,2.3,0,0,1,1.894.9,2.567,2.567,0,0,1,.514,1.586h-4.178a1.844,1.844,0,0,0,.514,1.324,1.646,1.646,0,0,0,1.233.514,1.964,1.964,0,0,0,.684-.126,1.742,1.742,0,0,0,.571-.331,2.951,2.951,0,0,0,.514-.662Zm0-1.244a1.9,1.9,0,0,0-.354-.765,1.62,1.62,0,0,0-.605-.456,1.88,1.88,0,0,0-.787-.171,1.741,1.741,0,0,0-1.176.434,1.948,1.948,0,0,0-.536.959Z" transform="translate(151 221.648)" fill="#049dbe"/>
    <path id="Path_250" data-name="Path 250" d="M125.727,88.187v4.645h-.593v-.8a2.481,2.481,0,0,1-.845.685,2.189,2.189,0,0,1-1.027.228,2.243,2.243,0,0,1-1.677-.719,2.44,2.44,0,0,1-.7-1.735,2.334,2.334,0,0,1,.708-1.712,2.277,2.277,0,0,1,1.689-.708,2.15,2.15,0,0,1,1.849.97v-.856Zm-2.385.456a1.789,1.789,0,0,0-.913.24,1.844,1.844,0,0,0-.673.685,1.946,1.946,0,0,0-.251.936,1.831,1.831,0,0,0,.251.936,1.878,1.878,0,0,0,.673.7,1.829,1.829,0,0,0,.913.251,1.763,1.763,0,0,0,.925-.251,1.668,1.668,0,0,0,.673-.673,1.883,1.883,0,0,0,.24-.947,1.86,1.86,0,0,0-.537-1.347,1.731,1.731,0,0,0-1.3-.536Z" transform="translate(151 221.648)" fill="#049dbe"/>
    <path id="Path_251" data-name="Path 251" d="M127.588,86.464h.593v1.723h.948V88.7h-.948v4.12h-.593V88.7h-.81v-.514h.81Z" transform="translate(151 221.648)" fill="#049dbe"/>
    <path id="Path_252" data-name="Path 252" d="M133.934,91.292l.5.262a2.8,2.8,0,0,1-.571.788,2.129,2.129,0,0,1-.73.457,2.6,2.6,0,0,1-.913.16,2.258,2.258,0,0,1-1.781-.742,2.47,2.47,0,0,1-.639-1.678,2.51,2.51,0,0,1,.536-1.575,2.226,2.226,0,0,1,1.838-.879,2.3,2.3,0,0,1,1.9.9,2.56,2.56,0,0,1,.513,1.586h-4.177a1.848,1.848,0,0,0,.513,1.324,1.646,1.646,0,0,0,1.233.514,2.079,2.079,0,0,0,.7-.126,1.875,1.875,0,0,0,.571-.331A2.951,2.951,0,0,0,133.934,91.292Zm0-1.244a1.9,1.9,0,0,0-.354-.765,1.636,1.636,0,0,0-.6-.456,1.884,1.884,0,0,0-.788-.171,1.74,1.74,0,0,0-1.175.434,1.949,1.949,0,0,0-.537.959Z" transform="translate(151 221.648)" fill="#049dbe"/>
    <path id="Path_253" data-name="Path 253" d="M137.62,88.187h.628l1.6,3.572,1.552-3.572h.639l-2.762,6.334h-.628l.89-2.054-1.906-4.291Z" transform="translate(151 221.648)" fill="#049dbe"/>
    <path id="Path_254" data-name="Path 254" d="M145,88.062a2.31,2.31,0,0,1,1.781.776,2.5,2.5,0,0,1-.034,3.378,2.453,2.453,0,0,1-3.493,0,2.428,2.428,0,0,1-.673-1.7,2.4,2.4,0,0,1,.639-1.666,2.27,2.27,0,0,1,1.78-.776Zm0,.582a1.729,1.729,0,0,0-1.278.548,1.851,1.851,0,0,0-.536,1.335,1.912,1.912,0,0,0,.239.936,1.711,1.711,0,0,0,.662.673,1.82,1.82,0,0,0,.913.24,1.789,1.789,0,0,0,.913-.24,1.7,1.7,0,0,0,.662-.673,1.9,1.9,0,0,0,.24-.936,1.855,1.855,0,0,0-.536-1.335A1.729,1.729,0,0,0,145,88.644Z" transform="translate(151 221.648)" fill="#049dbe"/>
    <path id="Path_255" data-name="Path 255" d="M148.451,88.187h.594v2.169a4.822,4.822,0,0,0,.079,1.1,1.237,1.237,0,0,0,.491.673,1.514,1.514,0,0,0,.856.251,1.445,1.445,0,0,0,.845-.24,1.274,1.274,0,0,0,.479-.639,4.624,4.624,0,0,0,.091-1.141V88.187h.6V90.47a3.692,3.692,0,0,1-.216,1.45,1.756,1.756,0,0,1-.674.765,2.468,2.468,0,0,1-2.26,0,1.71,1.71,0,0,1-.684-.765,3.786,3.786,0,0,1-.217-1.484V88.2Z" transform="translate(151 221.648)" fill="#049dbe"/>
    <path id="Path_256" data-name="Path 256" d="M153.61,88.187h.6v.673a2.047,2.047,0,0,1,.582-.593,1.187,1.187,0,0,1,.627-.194,1.105,1.105,0,0,1,.525.16l-.308.5a.765.765,0,0,0-.319-.08.893.893,0,0,0-.582.24,1.62,1.62,0,0,0-.423.765,6.941,6.941,0,0,0-.114,1.609v1.564h-.6V88.187Z" transform="translate(151 221.648)" fill="#049dbe"/>
    <path id="Path_257" data-name="Path 257" d="M158.974,92.832V86.555h1.3a6.7,6.7,0,0,1,2.043.228,2.766,2.766,0,0,1,1.427,1.107,3.374,3.374,0,0,1,.513,1.883,3.236,3.236,0,0,1-.411,1.655,2.7,2.7,0,0,1-1.061,1.061,3.97,3.97,0,0,1-1.826.342h-1.986Zm.6-.593h.73a6.99,6.99,0,0,0,1.8-.16,2.092,2.092,0,0,0,1.107-.833,2.622,2.622,0,0,0,.411-1.461,2.838,2.838,0,0,0-.434-1.552,2.188,2.188,0,0,0-1.221-.879,7.575,7.575,0,0,0-1.941-.183h-.445v5.067Z" transform="translate(151 221.648)" fill="#049dbe"/>
    <path id="Path_258" data-name="Path 258" d="M165.582,86.281a.436.436,0,0,1,.343.148.523.523,0,0,1,.148.354.436.436,0,0,1-.148.342.518.518,0,0,1-.343.148.45.45,0,0,1-.342-.148.519.519,0,0,1-.149-.342.492.492,0,0,1,.149-.354A.468.468,0,0,1,165.582,86.281Zm-.3,1.906h.594v4.645h-.594Z" transform="translate(151 221.648)" fill="#049dbe"/>
    <path id="Path_259" data-name="Path 259" d="M171.129,88.187h.594v3.7a4.292,4.292,0,0,1-.172,1.427,1.862,1.862,0,0,1-.81.982,2.707,2.707,0,0,1-1.392.342,3.155,3.155,0,0,1-1.073-.171,2.143,2.143,0,0,1-.776-.456,2.689,2.689,0,0,1-.548-.833h.65a1.656,1.656,0,0,0,.685.685,2.189,2.189,0,0,0,1.039.217,2.135,2.135,0,0,0,1.027-.228,1.406,1.406,0,0,0,.6-.571,2.429,2.429,0,0,0,.183-1.107v-.24a2.274,2.274,0,0,1-.822.65,2.469,2.469,0,0,1-1.039.228,2.356,2.356,0,0,1-1.2-.32,2.376,2.376,0,0,1-.856-3.241,2.433,2.433,0,0,1,.89-.879,2.358,2.358,0,0,1,1.2-.32,2.16,2.16,0,0,1,.971.217,2.7,2.7,0,0,1,.867.708v-.81Zm-1.758.456a1.948,1.948,0,0,0-.947.24,1.854,1.854,0,0,0-.685.673,1.8,1.8,0,0,0-.251.936A1.705,1.705,0,0,0,168,91.76a1.788,1.788,0,0,0,1.324.5,1.81,1.81,0,0,0,1.324-.491,1.763,1.763,0,0,0,.5-1.3,1.929,1.929,0,0,0-.228-.936,1.7,1.7,0,0,0-.651-.651,1.818,1.818,0,0,0-.913-.24Z" transform="translate(151 221.648)" fill="#049dbe"/>
    <path id="Path_260" data-name="Path 260" d="M173.206,86.281a.436.436,0,0,1,.343.148.523.523,0,0,1,.148.354.436.436,0,0,1-.148.342.518.518,0,0,1-.343.148.45.45,0,0,1-.342-.148.518.518,0,0,1-.148-.342.491.491,0,0,1,.148-.354A.468.468,0,0,1,173.206,86.281Zm-.3,1.906h.593v4.645h-.593Z" transform="translate(151 221.648)" fill="#049dbe"/>
    <path id="Path_261" data-name="Path 261" d="M175.272,86.464h.593v1.723h.948V88.7h-.948v4.12h-.593V88.7h-.81v-.514h.81Z" transform="translate(151 221.648)" fill="#049dbe"/>
    <path id="Path_262" data-name="Path 262" d="M182.337,88.187v4.645h-.594v-.8a2.487,2.487,0,0,1-.844.685,2.192,2.192,0,0,1-1.027.228,2.227,2.227,0,0,1-1.678-.719,2.439,2.439,0,0,1-.7-1.735,2.292,2.292,0,0,1,.707-1.712,2.37,2.37,0,0,1,2.728-.468,2.225,2.225,0,0,1,.81.731v-.856Zm-2.385.456a1.862,1.862,0,0,0-.925.24,1.766,1.766,0,0,0-.673.685,1.87,1.87,0,0,0,0,1.872,1.878,1.878,0,0,0,.673.7,1.829,1.829,0,0,0,.913.251,1.763,1.763,0,0,0,.925-.251,1.668,1.668,0,0,0,.673-.673,1.883,1.883,0,0,0,.24-.947,1.854,1.854,0,0,0-.525-1.347,1.732,1.732,0,0,0-1.3-.536Z" transform="translate(151 221.648)" fill="#049dbe"/>
    <path id="Path_263" data-name="Path 263" d="M183.592,86.4h.594v6.437h-.594Z" transform="translate(151 221.648)" fill="#049dbe"/>
    <path id="Path_264" data-name="Path 264" d="M187.941,86.555h3.138v.616h-2.522v1.963h2.522v.616h-2.522v3.081h-.628V86.555Z" transform="translate(151 221.648)" fill="#049dbe"/>
    <path id="Path_265" data-name="Path 265" d="M192,88.187h.593v2.169a4.566,4.566,0,0,0,.092,1.1,1.175,1.175,0,0,0,.49.673,1.514,1.514,0,0,0,.856.251,1.445,1.445,0,0,0,.845-.24,1.274,1.274,0,0,0,.479-.639,4.624,4.624,0,0,0,.091-1.141V88.187h.6V90.47a3.659,3.659,0,0,1-.228,1.45,1.754,1.754,0,0,1-.673.765,2.468,2.468,0,0,1-2.26,0,1.687,1.687,0,0,1-.673-.765,3.751,3.751,0,0,1-.229-1.484V88.2Z" transform="translate(151 221.648)" fill="#049dbe"/>
    <path id="Path_266" data-name="Path 266" d="M197.9,86.464h.594v1.723h.947V88.7H198.5v4.12H197.9V88.7h-.81v-.514h.81Z" transform="translate(151 221.648)" fill="#049dbe"/>
    <path id="Path_267" data-name="Path 267" d="M200.278,88.187h.594v2.169a4.806,4.806,0,0,0,.08,1.1,1.23,1.23,0,0,0,.49.673,1.514,1.514,0,0,0,.856.251,1.445,1.445,0,0,0,.845-.24,1.274,1.274,0,0,0,.479-.639,4.607,4.607,0,0,0,.092-1.141V88.187h.6V90.47a3.689,3.689,0,0,1-.217,1.45,1.756,1.756,0,0,1-.674.765,2.468,2.468,0,0,1-2.26,0,1.71,1.71,0,0,1-.684-.765,3.786,3.786,0,0,1-.217-1.484V88.2Z" transform="translate(151 221.648)" fill="#049dbe"/>
    <path id="Path_268" data-name="Path 268" d="M205.437,88.187h.605v.673a2.072,2.072,0,0,1,.582-.593,1.188,1.188,0,0,1,.628-.194,1.108,1.108,0,0,1,.525.16l-.308.5a.773.773,0,0,0-.32-.08.9.9,0,0,0-.582.24,1.611,1.611,0,0,0-.422.765,6.883,6.883,0,0,0-.114,1.609v1.564h-.605V88.187Z" transform="translate(151 221.648)" fill="#049dbe"/>
    <path id="Path_269" data-name="Path 269" d="M212.159,91.292l.5.262a2.8,2.8,0,0,1-.571.788,2.321,2.321,0,0,1-.731.457,2.546,2.546,0,0,1-.913.16,2.258,2.258,0,0,1-1.78-.742,2.55,2.55,0,0,1-.1-3.253,2.226,2.226,0,0,1,1.838-.879,2.3,2.3,0,0,1,1.894.9,2.561,2.561,0,0,1,.514,1.586h-4.177a1.844,1.844,0,0,0,.513,1.324,1.646,1.646,0,0,0,1.233.514,1.969,1.969,0,0,0,.685-.126,1.737,1.737,0,0,0,.57-.331,2.667,2.667,0,0,0,.5-.662Zm0-1.244a2.073,2.073,0,0,0-.342-.765,1.544,1.544,0,0,0-.6-.456,1.88,1.88,0,0,0-.787-.171,1.741,1.741,0,0,0-1.176.434,1.941,1.941,0,0,0-.536.959h3.446Z" transform="translate(151 221.648)" fill="#049dbe"/>
    <path id="Path_270" data-name="Path 270" d="M92.31,72.289h-.8v1.05h.8Z" transform="translate(151 221.648)" fill="#fff"/>
    <path id="Path_271" data-name="Path 271" d="M91.066,72.289h-.81v1.05h.81Z" transform="translate(151 221.648)" fill="#fff"/>
    <path id="Path_272" data-name="Path 272" d="M95.734,79.879h-.8v1.05h.8Z" transform="translate(151 221.648)" fill="#fff"/>
    <path id="Path_273" data-name="Path 273" d="M94.478,79.879h-.8v1.05h.8Z" transform="translate(151 221.648)" fill="#fff"/>
    <path id="Path_274" data-name="Path 274" d="M104.077,76.74c0,.776-.229,1.164-.868,1.164a2.057,2.057,0,0,1-1.015-.24,3.487,3.487,0,0,0,.1-.765V74.5l-.89.137v2.1c0,.776-.24,1.164-.845,1.164a5.9,5.9,0,0,1-1.187-.126,2.365,2.365,0,0,0,.137-.879V74.891l-.89.137V76.74c0,.776-.217,1.164-.856,1.164H96.647a2.062,2.062,0,0,1-1.016-.24,3.441,3.441,0,0,0,.1-.765V74.263l-.9.137v2.34c0,.776-.262,1.164-1.05,1.164h-.97V74.583a4.564,4.564,0,0,0-1.472-.24,1.713,1.713,0,0,0-1.815,1.952c0,1.415.73,1.86,1.758,1.86a4,4,0,0,0,.628-.057v.685h2.02a2.164,2.164,0,0,0,1.233-.377,3.091,3.091,0,0,0,1.529.377h1.13a1.751,1.751,0,0,0,.97-.24,10.069,10.069,0,0,0,1.8.24,1.712,1.712,0,0,0,1.13-.377,3.16,3.16,0,0,0,1.54.377c1.176,0,1.724-.639,1.724-1.883V74.263l-.9.137v2.34Zm-12.167.422a2.49,2.49,0,0,1-.628.08c-.468,0-.81-.205-.81-.947,0-.787.377-1.039.879-1.039H91.5a1.368,1.368,0,0,1,.422.046v1.86Z" transform="translate(151 221.648)" fill="#fff"/>
    <path id="Path_275" data-name="Path 275" d="M113.253,72.243h-.913v1.1h.913Z" transform="translate(151 221.648)" fill="#fff"/>
    <path id="Path_276" data-name="Path 276" d="M122.235,76.74c0,.776-.3,1.164-1.084,1.164h-1.142V76.866a2.467,2.467,0,0,0-2.533-2.648,4.141,4.141,0,0,0-1.564.331l.228.845a3.34,3.34,0,0,1,1.324-.3,1.671,1.671,0,0,1,1.632,1.826v.97h-.833v-.24c0-1.29-.65-1.644-1.324-1.644s-1.335.365-1.335,1.644v.24h-1.427a2.063,2.063,0,0,1-1.016-.24,3.424,3.424,0,0,0,.1-.765V74.252l-.9.137v2.34c0,.776-.263,1.164-1.05,1.164h-1.244l-.32-1.7c-.274-1.472-.97-1.689-2.248-1.689l-.035.845c.913.034,1.222.057,1.416,1.084l.3,1.461h-2.556l-.445.879h5.295a2.171,2.171,0,0,0,1.244-.377,3.093,3.093,0,0,0,1.53.377h7.122a1.662,1.662,0,0,0,1.814-1.883V72.3l-.9.125v4.3ZM117.373,77.9h-.89v-.24c0-.365.023-.765.456-.765.388,0,.445.434.445.765v.24Z" transform="translate(151 221.648)" fill="#fff"/>
    <path id="Path_277" data-name="Path 277" d="M124.266,78.771h.9V72.3l-.9.137Z" transform="translate(151 221.648)" fill="#fff"/>
    <path id="Path_278" data-name="Path 278" d="M133.214,76.74c0,.776-.216,1.164-.867,1.164h-1.689c-.913,0-1.29-.456-1.29-1.4V74.024l-.89.867v1.678a1.93,1.93,0,0,0,2.191,2.214H132.4c1.176,0,1.712-.639,1.712-1.883V74.263l-.89.137v2.34Z" transform="translate(151 221.648)" fill="#fff"/>
    <path id="Path_279" data-name="Path 279" d="M131.069,71.581h-.8v1.05h.8Z" transform="translate(151 221.648)" fill="#fff"/>
    <path id="Path_280" data-name="Path 280" d="M132.324,71.581h-.81v1.05h.81Z" transform="translate(151 221.648)" fill="#fff"/>
    <path id="Path_281" data-name="Path 281" d="M135.246,78.771h.89V72.3l-.89.137Z" transform="translate(151 221.648)" fill="#fff"/>
    <path id="Path_282" data-name="Path 282" d="M138.636,78.406c0,.97-.411,1.427-1.347,1.427-.1,0-.514-.034-.628-.034l.388.879h.263a1.938,1.938,0,0,0,2.214-2.214V75.29l-.89.137v2.979Z" transform="translate(151 221.648)" fill="#fff"/>
    <path id="Path_283" data-name="Path 283" d="M148.485,70.851h-.719v.959h.719Z" transform="translate(151 221.648)" fill="#fff"/>
    <path id="Path_284" data-name="Path 284" d="M147.9,72.277h-.81v1.061h.81Z" transform="translate(151 221.648)" fill="#fff"/>
    <path id="Path_285" data-name="Path 285" d="M149.147,72.277h-.8v1.061h.8Z" transform="translate(151 221.648)" fill="#fff"/>
    <path id="Path_286" data-name="Path 286" d="M154.34,72.289h-.81v1.05h.81Z" transform="translate(151 221.648)" fill="#fff"/>
    <path id="Path_287" data-name="Path 287" d="M153.073,72.289h-.8v1.05h.8Z" transform="translate(151 221.648)" fill="#fff"/>
    <path id="Path_288" data-name="Path 288" d="M162.672,76.74c0,.776-.228,1.164-.868,1.164a2.057,2.057,0,0,1-1.015-.24,2.888,2.888,0,0,0,.1-.765V74.5l-.89.137v2.1c0,.776-.24,1.164-.844,1.164a5.9,5.9,0,0,1-1.187-.125,2.372,2.372,0,0,0,.137-.879V74.891l-.891.137V76.74c0,.776-.217,1.164-.856,1.164h-1.118a2.063,2.063,0,0,1-1.016-.24,3.423,3.423,0,0,0,.1-.765V74.263l-.9.137v2.34c0,.776-.262,1.164-1.05,1.164h-.171a2.138,2.138,0,0,1-1.039-.251,2.541,2.541,0,0,0,.1-.753V74.263l-.9.137v2.34c0,.776-.216,1.164-.856,1.164a2.1,2.1,0,0,1-1.027-.24,2.463,2.463,0,0,0,.1-.765V74.5l-.89.137v2.1c0,.776-.217,1.164-.845,1.164a5.852,5.852,0,0,1-1.164-.125,2.654,2.654,0,0,0,.126-.879V74.891l-.891.137V76.74c0,.776-.228,1.164-.844,1.164H142.2c-.194,0-.377-.046-.377-.559V72.312l-.9.126V77.4c0,1.21.685,1.381,1.176,1.381h2.043a1.907,1.907,0,0,0,.97-.228,9.985,9.985,0,0,0,1.8.228,1.7,1.7,0,0,0,1.119-.377,3.19,3.19,0,0,0,1.541.377,1.731,1.731,0,0,0,1.175-.377,3.209,3.209,0,0,0,1.518.377h.274a2.175,2.175,0,0,0,1.244-.377,3.092,3.092,0,0,0,1.529.377h1.13a1.751,1.751,0,0,0,.97-.24,10.083,10.083,0,0,0,1.8.24,1.712,1.712,0,0,0,1.13-.377,3.16,3.16,0,0,0,1.54.377c1.176,0,1.724-.639,1.724-1.883V74.263l-.9.137v2.34Z" transform="translate(151 221.648)" fill="#fff"/>
    <path id="Path_289" data-name="Path 289" d="M170.581,76.74c0,.776-.285,1.164-1.084,1.164h-.137a2.12,2.12,0,0,1-1.027-.251,3.685,3.685,0,0,0,.1-.753V72.312l-.89.126v4.3a1.385,1.385,0,0,1-.228.924l-1.495-5.1-.89.126c.525,1.7,1.027,3.515,1.54,5.216H164.5l.445.879h1.8a1.632,1.632,0,0,0,1.153-.377,3.22,3.22,0,0,0,1.529.377h.274a1.668,1.668,0,0,0,1.815-1.883V72.312l-.9.126v4.3Z" transform="translate(151 221.648)" fill="#fff"/>
    <path id="Path_290" data-name="Path 290" d="M178.365,79.057a8.472,8.472,0,0,1-1.392.1c-.959,0-1.359-.456-1.359-1.427V74l-.89.959V77.8a1.938,1.938,0,0,0,2.214,2.214,10.87,10.87,0,0,0,2.34-.274v-7.43l-.9.126v6.62Z" transform="translate(151 221.648)" fill="#fff"/>
    <path id="Path_291" data-name="Path 291" d="M194.2,76.74c0,.776-.274,1.164-1.027,1.164h-1.039l-.1-.73c-.216-1.689-1.232-2.876-2.67-2.876a3.522,3.522,0,0,0-1.164.24l-.491,1.05a2.462,2.462,0,0,1,1.381-.479c1.233,0,2.134,1.278,2.157,2.8h-4.017a2.061,2.061,0,0,1-1.016-.24,3.482,3.482,0,0,0,.1-.765V72.312l-.9.126v4.3c0,.776-.263,1.164-1.062,1.164h-.525V75.165a4.482,4.482,0,0,0-1.392-.228,1.767,1.767,0,0,0-1.826,1.94,1.688,1.688,0,0,0,1.769,1.906h.525a1.19,1.19,0,0,1-1.3,1.05c-.114,0-.537-.034-.662-.034l.434.879h.274c1.415,0,2.122-.582,2.191-1.906h.7a2.164,2.164,0,0,0,1.233-.377,3.087,3.087,0,0,0,1.529.377h5.935a1.659,1.659,0,0,0,1.894-1.883V72.3l-.9.125v4.3ZM182.919,77.9h-.525c-.48,0-.9-.3-.9-1.05a.962.962,0,0,1,.959-1.073,1.446,1.446,0,0,1,.468.068Z" transform="translate(151 221.648)" fill="#fff"/>
    <path id="Path_292" data-name="Path 292" d="M196.226,78.771h.9V72.3l-.9.137Z" transform="translate(151 221.648)" fill="#fff"/>
    <path id="Path_293" data-name="Path 293" d="M203.017,72.289h-.8v1.05h.8Z" transform="translate(151 221.648)" fill="#fff"/>
    <path id="Path_294" data-name="Path 294" d="M201.762,72.289h-.8v1.05h.8Z" transform="translate(151 221.648)" fill="#fff"/>
    <path id="Path_295" data-name="Path 295" d="M201.979,74.252c-1.279,0-2,.719-2,2.305s.719,2.317,2,2.317,2.008-.73,2.008-2.317S203.234,74.252,201.979,74.252Zm0,3.732c-.708,0-1.062-.388-1.062-1.438s.354-1.438,1.062-1.438,1.061.388,1.061,1.438S202.663,77.984,201.979,77.984Z" transform="translate(151 221.648)" fill="#fff"/>
    <path id="Path_296" data-name="Path 296" d="M204.855,78.771h.89V72.3l-.89.137Z" transform="translate(151 221.648)" fill="#fff"/>
    <path id="Path_297" data-name="Path 297" d="M211.68,76.74c0,.776-.3,1.164-1.084,1.164H210.1V75.165a4.5,4.5,0,0,0-1.393-.228,1.768,1.768,0,0,0-1.826,1.94,1.689,1.689,0,0,0,1.769,1.906h.525a1.182,1.182,0,0,1-1.3,1.05c-.114,0-.536-.034-.662-.034l.434.879h.274c1.415,0,2.123-.582,2.191-1.906h.7a1.664,1.664,0,0,0,1.8-1.883V74.252l-.9.137v2.34ZM209.2,77.9h-.525c-.479,0-.9-.3-.9-1.05a.962.962,0,0,1,.959-1.073,1.444,1.444,0,0,1,.468.069Z" transform="translate(151 221.648)" fill="#fff"/>
    <path id="Path_298" data-name="Path 298" d="M212.593,72.243h-.913v1.1h.913Z" transform="translate(151 221.648)" fill="#fff"/>
    <path id="Path_299" data-name="Path 299" d="M89,54.268H213.266" transform="translate(151 221.648)" fill="none" stroke="#144372" stroke-miterlimit="10" stroke-width="0.67"/>
  </g>
</svg>
