<svg xmlns="http://www.w3.org/2000/svg" width="155.441" height="155.62" viewBox="0 0 155.441 155.62">
  <g id="Elm-Logo" transform="translate(-290.7 -167.3)">
    <path id="Path_58" data-name="Path 58" d="M390.429,291.942,373.9,282.394V263.3l16.529,9.547Z" transform="translate(-33.554 -38.717)" fill="#11034c"/>
    <path id="Path_59" data-name="Path 59" d="M390.429,215.3,373.9,224.847v19.094l16.529-9.547Z" transform="translate(-33.554 -19.358)" fill="#11034c"/>
    <path id="Path_60" data-name="Path 60" d="M418.129,167.3,401.6,176.847v19.094l16.529-9.547Z" transform="translate(-44.726 0)" fill="#11034c"/>
    <path id="Path_61" data-name="Path 61" d="M334.929,215.3,318.4,224.847v19.094l16.529-9.547Z" transform="translate(-11.171 -19.358)" fill="#11034c"/>
    <path id="Path_62" data-name="Path 62" d="M362.688,243.942,346.1,234.394V215.3l16.588,9.547Z" transform="translate(-22.343 -19.358)" fill="#662d91"/>
    <path id="Path_63" data-name="Path 63" d="M473.588,243.942,457,234.394V215.3l16.588,9.547Z" transform="translate(-67.069 -19.358)" fill="#0070b9"/>
    <path id="Path_64" data-name="Path 64" d="M290.7,304.847h0l16.529,9.547,16.529-9.547L307.229,295.3Z" transform="translate(0 -51.622)" fill="#92278f"/>
    <path id="Path_65" data-name="Path 65" d="M346.1,304.847h0l16.588,9.547,16.529-9.547L362.688,295.3Z" transform="translate(-22.343 -51.622)" fill="#92278f"/>
    <path id="Path_66" data-name="Path 66" d="M373.9,256.847h0l16.529,9.547,16.529-9.547L390.429,247.3Z" transform="translate(-33.554 -32.264)" fill="#44c8f5"/>
    <path id="Path_67" data-name="Path 67" d="M429.3,256.847h0l16.529,9.547,16.588-9.547L445.829,247.3Z" transform="translate(-55.897 -32.264)" fill="#44c8f5"/>
    <path id="Path_68" data-name="Path 68" d="M408.879,346.484H398.257a2.209,2.209,0,0,1-2.148-2.089V331.029H406.85a2.126,2.126,0,0,1,2.088,2.148v13.306Zm-22.257-24.405v24.405H369.974a.645.645,0,0,0-.418.179l-4.953,8.354c-.119.3-.179.418-.119.6a.593.593,0,0,0,.477.358h56.985a8.4,8.4,0,0,0,6.325-3.162,8.3,8.3,0,0,0,6.325,3.162h40.755a.535.535,0,0,0,.537-.537V347.08a.425.425,0,0,0-.179-.358.516.516,0,0,0-.358-.179h-21.66V333.3a2.089,2.089,0,0,1,2.089-2.148h14.56a.645.645,0,0,0,.418-.179l4.953-8.414c.119-.3.179-.418.119-.6a.6.6,0,0,0-.537-.358H453.273c-4.953,0-9.129,3.938-9.129,8.592v16.35h-8.175v-41.59a.454.454,0,0,0-.358-.477c-.179-.06-.3-.06-.6.119l-8.354,4.953a.541.541,0,0,0-.179.418V346.6h-8.175V330.134c0-4.595-4.177-8.473-9.07-8.473H387.159a.411.411,0,0,0-.537.418" transform="translate(-29.748 -55.308)" fill="#fff"/>
    <path id="Path_69" data-name="Path 69" d="M489.1,401.439a.257.257,0,0,1,.239-.239h10.144a.257.257,0,0,1,.239.239v2.506a.257.257,0,0,1-.239.239h-6.8c-.119,0-.119.06-.119.119v3.163c0,.119.06.119.119.119h5.669a.257.257,0,0,1,.239.239v2.446a.257.257,0,0,1-.239.239H492.68c-.119,0-.119.06-.119.119v3.282c0,.119.06.119.119.119h6.8a.257.257,0,0,1,.239.239v2.506a.257.257,0,0,1-.239.239H489.339a.257.257,0,0,1-.239-.239Z" transform="translate(-80.014 -94.332)" fill="#fff"/>
    <path id="Path_70" data-name="Path 70" d="M514.521,417.192c-2.506,0-3.521-1.074-3.521-3.58V401.439a.257.257,0,0,1,.239-.239h2.8a.257.257,0,0,1,.239.239v11.934c0,.776.3,1.074.955,1.074h.477a.257.257,0,0,1,.239.239v2.327a.257.257,0,0,1-.239.239h-1.193Z" transform="translate(-88.847 -94.332)" fill="#fff"/>
    <path id="Path_71" data-name="Path 71" d="M536.743,420.016a.257.257,0,0,1-.239-.239v-6.5c0-1.253-.6-2.029-1.79-2.029-1.134,0-1.73.835-1.73,2.029v6.5a.257.257,0,0,1-.239.239h-2.8a.257.257,0,0,1-.239-.239v-6.5c0-1.253-.6-2.029-1.73-2.029a1.794,1.794,0,0,0-1.79,2.029v6.5a.257.257,0,0,1-.239.239h-2.8a.257.257,0,0,1-.239-.239v-10.8a.257.257,0,0,1,.239-.239h2.8a.257.257,0,0,1,.239.239v.776h0a3.479,3.479,0,0,1,2.924-1.253,3.437,3.437,0,0,1,3.043,1.432h0a4.572,4.572,0,0,1,3.521-1.432c2.685,0,4.058,1.73,4.058,4.177v7.1a.257.257,0,0,1-.239.239Z" transform="translate(-93.646 -97.276)" fill="#fff"/>
  </g>
</svg>
