<svg xmlns="http://www.w3.org/2000/svg" xmlns:xlink="http://www.w3.org/1999/xlink" width="96.851" height="97.549" viewBox="0 0 96.851 97.549">
  <defs>
    <linearGradient id="linear-gradient" x1="0.412" y1="0.168" x2="0.864" y2="0.781" gradientUnits="objectBoundingBox">
      <stop offset="0" stop-color="#56bcdf"/>
      <stop offset="1" stop-color="#025165"/>
    </linearGradient>
  </defs>
  <g id="favicon" transform="translate(-660 -127)">
    <path id="Path_72" data-name="Path 72" d="M61.813,137.509s1.443-14.674,11.258-24.777,19.485-15.156,30.31-16.6,21.218,1.443,24.682,3.031,9.093,3.9,8.949,6.639,0,4.041-1.011,5.051-4.619,3.609-11.547,4.907-21.214,1.877-25.04,3.32-10.754,2.453-11.187,8.949,12.413,12.557,14.577,13.134,17.32,5.052,19.052,6.207,5.918,4.907,3.32,8.515-5.2,4.619-9.382,5.052-15.3-.289-24.392-3.32-22.8-9.237-24.392-10.681S62.1,141.935,61.813,137.509Z" transform="translate(598.187 31.26)" fill="url(#linear-gradient)"/>
    <path id="Path_73" data-name="Path 73" d="M150.9,123.089s8.949,9.671,8.8,23.671-1.732,22.8-8.083,31.176-15.156,16.6-26.7,19.486-24.681,2.165-32.475-1.877-15.877-9.237-21.362-16.887-5.051-11.029-4.33-11.721,2.454-3.435,7.073-1.269,19.34,8.515,30.743,8.949,21.073.721,27.712-3.609,8.8-9.959,7.794-12.845-1.155-4.763-7.65-7.505-18.619-7.073-20.928-8.083-6.784-2.6-5.918-7.361,8.371-5.485,10.826-5.917,11.691-.722,14.577-1.588a37.71,37.71,0,0,0,9.671-3.9c3.175-2.021,5.485-2.743,7.072-2.454A4.734,4.734,0,0,1,150.9,123.089Z" transform="translate(597.147 25.377)" fill="url(#linear-gradient)"/>
  </g>
</svg>
