<svg xmlns="http://www.w3.org/2000/svg" width="100" height="100" viewBox="0 0 100 100">
  <g id="Holy" transform="translate(-1400 -605)">
    <circle id="Ellipse_3" data-name="Ellipse 3" cx="50" cy="50" r="50" transform="translate(1400 605)" fill="#2a622e" opacity="0.1"/>
    <path id="path1312" d="M216.385,82.481,181.93,81.3Z" transform="translate(1251.109 585.737)" fill="#fff"/>
    <path id="_2303252_architect_dome_masjid_mosque_ramadhan_icon" data-name="2303252_architect_dome_masjid_mosque_ramadhan_icon" d="M139.27,79.517a1.194,1.194,0,0,1-1.194-1.194A1.172,1.172,0,0,1,139,77.186a6.569,6.569,0,0,1,.679-13.1,5.033,5.033,0,1,0,6.768,5.958,6.582,6.582,0,0,1-6.656,7.22,1.181,1.181,0,0,1-.524,2.239Zm20.216,22.514c-2.139-11.841-15.957-18.051-19.54-19.489a1.594,1.594,0,1,0-1.351,0c-3.583,1.436-17.4,7.648-19.54,19.489a18.487,18.487,0,0,0,.558,8.549,58.011,58.011,0,0,0,19.661,4.2h0a58.01,58.01,0,0,0,19.661-4.2,18.606,18.606,0,0,0,.551-8.547Zm-6.078,11.645a59.063,59.063,0,0,1-14.138,2.277h0a59.063,59.063,0,0,1-14.135-2.269c-1.333-.385-2.577-.811-3.777-1.248.149.914.448,4.7.609,5.524l.243,2.253.942.124.95.118L123.953,119l-.01-.1v-.016c-.063-.626.637-1.045,1.565-.941s1.718.675,1.765,1.3v.016l.007.1.112,1.451.954.087.955.079q-.048-.724-.094-1.45v-.118c-.042-.623.678-1.066,1.611-1s1.709.606,1.736,1.229v.118q.033.724.064,1.448l.958.048.958.042-.048-1.447v-.116c-.021-.623.718-1.094,1.653-1.069s1.7.539,1.7,1.16v.118q.009.723.018,1.445h2.807l.018-1.445v-.118c0-.621.769-1.135,1.7-1.16s1.674.448,1.653,1.069v.116l-.048,1.447.958-.042.958-.048q.033-.724.064-1.448v-.118c.027-.623.8-1.166,1.736-1.229s1.653.381,1.611,1v.118q-.048.724-.094,1.45l.955-.079.954-.087.112-1.451a.466.466,0,0,1,.007-.1v-.016c.046-.624.838-1.194,1.765-1.3s1.626.317,1.565.941v.016l-.01.1-.149,1.454.95-.118.942-.124q.122-1.127.246-2.256c.167-.82.463-4.606.609-5.524-1.182.44-2.432.866-3.765,1.251Z" transform="translate(1310.995 558.267)" fill="#2a622e"/>
  </g>
</svg>
