<svg xmlns="http://www.w3.org/2000/svg" width="100" height="100" viewBox="0 0 100 100"><g transform="translate(-1458 535)"><circle cx="50" cy="50" r="50" transform="translate(1458 -535)" fill="#9f734c" opacity="0.1"/><circle cx="8.358" cy="8.358" r="8.358" transform="translate(1499.209 -499.662)" fill="#9f734c"/><path d="M53.967,19.44a3.359,3.359,0,0,0-.687-4.771l-1.424-1.033a3.36,3.36,0,0,1-1.375-3.01l.15-1.753a3.359,3.359,0,0,0-3.156-3.66l-1.757-.1a3.36,3.36,0,0,1-2.782-1.79l-.813-1.558A3.359,3.359,0,0,0,37.491.425l-1.529.866a3.359,3.359,0,0,1-3.311,0L31.122.425a3.359,3.359,0,0,0-4.628,1.358L25.68,3.342A3.359,3.359,0,0,1,22.9,5.131l-1.757.1a3.359,3.359,0,0,0-3.156,3.66l.15,1.753a3.359,3.359,0,0,1-1.375,3.01l-1.424,1.033a3.359,3.359,0,0,0-.687,4.771l1.074,1.391a3.359,3.359,0,0,1,.472,3.274l-.639,1.627a3.36,3.36,0,0,0,2,4.384l1.655.59a3.359,3.359,0,0,1,2.168,2.5L21.7,34.77,17.473,48.5l6.7-2.1,4.173,5.645,3.811-12.458a3.359,3.359,0,0,0,4.1.15l4.01,12.307L44.44,46.4l6.7,2.1L46.813,35.228c.028-.094.053-.183.073-.281l.346-1.724a3.359,3.359,0,0,1,2.168-2.5l1.655-.59a3.36,3.36,0,0,0,2-4.384l-.639-1.627a3.359,3.359,0,0,1,.472-3.274Zm-31.273.74A11.612,11.612,0,1,1,34.306,31.792,11.612,11.612,0,0,1,22.694,20.18Z" transform="translate(1473.26 -511.484)" fill="#9f734c"/></g></svg>