<svg xmlns="http://www.w3.org/2000/svg" width="100" height="100" viewBox="0 0 100 100">
  <g id="Quality-Assurance" transform="translate(-1400 -605)">
    <circle id="Ellipse_3" data-name="Ellipse 3" cx="50" cy="50" r="50" transform="translate(1400 605)" fill="#2a622e" opacity="0.1"/>
    <g id="_4265038_badge_guarantee_quality_ribbon_warranty_icon" data-name="4265038_badge_guarantee_quality_ribbon_warranty_icon" transform="translate(1415.26 628.516)">
      <circle id="Ellipse_5" data-name="Ellipse 5" cx="8.358" cy="8.358" r="8.358" transform="translate(25.949 11.822)" fill="#2a622e"/>
      <path id="Path_88" data-name="Path 88" d="M53.967,19.44a3.359,3.359,0,0,0-.687-4.771l-1.424-1.033a3.36,3.36,0,0,1-1.375-3.01l.15-1.753a3.359,3.359,0,0,0-3.156-3.66l-1.757-.1a3.36,3.36,0,0,1-2.782-1.79l-.813-1.558A3.359,3.359,0,0,0,37.491.425l-1.529.866a3.359,3.359,0,0,1-3.311,0L31.122.425a3.359,3.359,0,0,0-4.628,1.358L25.68,3.342A3.359,3.359,0,0,1,22.9,5.131l-1.757.1a3.359,3.359,0,0,0-3.156,3.66l.15,1.753a3.359,3.359,0,0,1-1.375,3.01l-1.424,1.033a3.359,3.359,0,0,0-.687,4.771l1.074,1.391a3.359,3.359,0,0,1,.472,3.274l-.639,1.627a3.36,3.36,0,0,0,2,4.384l1.655.59a3.359,3.359,0,0,1,2.168,2.5l.317,1.546L17.473,48.5l6.7-2.1,4.173,5.645,3.811-12.458a3.359,3.359,0,0,0,4.1.15l4.01,12.307,4.173-5.645,6.7,2.1L46.813,35.228c.028-.094.053-.183.073-.281l.346-1.724a3.359,3.359,0,0,1,2.168-2.5l1.655-.59a3.36,3.36,0,0,0,2-4.384l-.639-1.627a3.359,3.359,0,0,1,.472-3.274Zm-31.273.74A11.612,11.612,0,1,1,34.307,31.792,11.612,11.612,0,0,1,22.695,20.18Z" transform="translate(0 0)" fill="#2a622e"/>
    </g>
  </g>
</svg>
