<svg xmlns="http://www.w3.org/2000/svg" width="21.358" height="21.216" viewBox="0 0 21.358 21.216"><g transform="translate(-1081 496)"><path d="M16.88,15.53,7,5.66A1,1,0,0,0,5.59,7.07l9.06,9.06-8.8,8.8a1,1,0,0,0,0,1.41h0a1,1,0,0,0,1.42,0l9.61-9.61a.85.85,0,0,0,0-1.2Z" transform="translate(1075.651 -501.42)" fill="#9f734c"/><path d="M26.46,15.53,16.58,5.66a1,1,0,0,0-1.41,1.41l9.06,9.06-8.8,8.8a1,1,0,0,0,0,1.41h0a1,1,0,0,0,1.41,0l9.62-9.61a.85.85,0,0,0,0-1.2Z" transform="translate(1075.651 -501.42)" fill="#9f734c"/></g></svg>