<svg xmlns="http://www.w3.org/2000/svg" width="100" height="100" viewBox="0 0 100 100">
  <g id="Satisfaction" transform="translate(-900 -605)">
    <circle id="Ellipse_4" data-name="Ellipse 4" cx="50" cy="50" r="50" transform="translate(900 605)" fill="#2a622e" opacity="0.1"/>
    <path id="_8665338_face_smile_beam_icon" data-name="8665338_face_smile_beam_icon" d="M20.21,0A20.21,20.21,0,1,0,40.42,20.21,20.209,20.209,0,0,0,20.21,0ZM9.474,17.637C9.734,14.313,12.016,12,13.823,12c1.884,0,4.168,2.309,4.426,5.635a.589.589,0,0,1-1.11.357l-.755-1.342a2.956,2.956,0,0,0-2.489-1.705,2.977,2.977,0,0,0-2.485,1.707l-.746,1.342A.638.638,0,0,1,9.474,17.637Zm19.8,9.7a11.869,11.869,0,0,1-18.126-.073,1.262,1.262,0,0,1,1.937-1.618,9.1,9.1,0,0,0,7.126,3.4,9.263,9.263,0,0,0,7.122-3.329A1.266,1.266,0,0,1,29.273,27.339Zm.418-9.347-.746-1.342a2.977,2.977,0,0,0-2.485-1.707,2.953,2.953,0,0,0-2.485,1.707l-.755,1.342a.632.632,0,0,1-1.179-.359C22.365,14.313,24.655,12,26.526,12s4.165,2.309,4.423,5.635A.676.676,0,0,1,29.692,17.992Z" transform="translate(929.446 634.446)" fill="#2a622e"/>
  </g>
</svg>
