<svg xmlns="http://www.w3.org/2000/svg" width="100" height="100" viewBox="0 0 100 100"><g transform="translate(-1710 535)"><circle cx="50" cy="50" r="50" transform="translate(1710 -535)" fill="#9f734c" opacity="0.1"/><path d="M31.678,14.356H45.241a.678.678,0,1,0,0-1.356H31.678a.678.678,0,0,0,0,1.356Z" transform="translate(1728.326 -510.885)" fill="#9f734c"/><path d="M46.851,17H36.678a.678.678,0,1,0,0,1.356H46.851a.678.678,0,1,0,0-1.356Z" transform="translate(1726.717 -512.173)" fill="#9f734c"/><path d="M40.654,10.138H39.3V6.747a.678.678,0,0,0-.678-.678H34.551V2.678A.678.678,0,0,0,33.873,2H5.39a.678.678,0,0,0-.678.678v7.46H4.495A2.611,2.611,0,0,0,2,12.851V39.923A2.665,2.665,0,0,0,4.535,42.69H40.254a2.618,2.618,0,0,0,2.435-2.767V12.172a2.034,2.034,0,0,0-2.034-2.034ZM9.459,6.747v3.431A2.624,2.624,0,0,0,7.425,12.85V38.62H6.068V3.356H33.194V6.069H10.137A.678.678,0,0,0,9.459,6.747Zm15.6,31.874a9.494,9.494,0,1,1,9.494-9.494A9.494,9.494,0,0,1,25.059,38.621ZM37.941,15.563h-14a.563.563,0,0,1-.387-.156L18.526,10.66a1.919,1.919,0,0,0-1.316-.522h-6.4V7.425H37.941Z" transform="translate(1737.66 -507.345)" fill="#9f734c"/><path d="M32.138,30a8.138,8.138,0,1,0,8.138,8.138A8.138,8.138,0,0,0,32.138,30Zm0,12.207c-3.282.115-6.619-3.5-6.632-3.642a.678.678,0,0,1,0-.854c0-.142,3.391-3.764,6.632-3.642,3.282-.115,6.619,3.5,6.632,3.642a.678.678,0,0,1,0,.854C38.764,38.708,35.413,42.329,32.138,42.207Z" transform="translate(1730.579 -516.357)" fill="#9f734c"/><path d="M29.639,42.606a10.355,10.355,0,0,1-1.289-1.153A10.356,10.356,0,0,1,29.639,40.3,4.069,4.069,0,0,0,29.639,42.606Z" transform="translate(1729.179 -519.671)" fill="#9f734c"/><path d="M34.713,38a2.713,2.713,0,1,0,2.713,2.713A2.713,2.713,0,0,0,34.713,38Zm0,3.391a.678.678,0,1,1,.678-.678.678.678,0,0,1-.678.678Z" transform="translate(1728.004 -518.931)" fill="#9f734c"/><path d="M43.039,41.453a10.356,10.356,0,0,1-1.289,1.153,4.069,4.069,0,0,0,0-2.306,10.355,10.355,0,0,1,1.289,1.153Z" transform="translate(1724.866 -519.671)" fill="#9f734c"/></g></svg>