<svg xmlns="http://www.w3.org/2000/svg" width="100" height="100" viewBox="0 0 100 100">
  <g id="Self-Supervision" transform="translate(-1400 -205)">
    <circle id="Ellipse_2" data-name="Ellipse 2" cx="50" cy="50" r="50" transform="translate(1400 205)" fill="#2a622e" opacity="0.1"/>
    <g id="Glyph" transform="translate(1427.66 232.655)">
      <g id="Glyph-2" data-name="Glyph" transform="translate(1.997 2)">
        <path id="Path_81" data-name="Path 81" d="M31.678,14.356H45.241a.678.678,0,1,0,0-1.356H31.678a.678.678,0,0,0,0,1.356Z" transform="translate(-11.331 -5.54)" fill="#2a622e"/>
        <path id="Path_82" data-name="Path 82" d="M46.851,17H36.678a.678.678,0,0,0,0,1.356H46.851a.678.678,0,1,0,0-1.356Z" transform="translate(-12.94 -6.828)" fill="#2a622e"/>
        <path id="Path_83" data-name="Path 83" d="M40.654,10.138H39.3V6.747a.678.678,0,0,0-.678-.678H34.551V2.678A.678.678,0,0,0,33.873,2H5.39a.678.678,0,0,0-.678.678v7.46H4.495A2.611,2.611,0,0,0,2,12.851V39.923A2.665,2.665,0,0,0,4.535,42.69H40.254a2.618,2.618,0,0,0,2.435-2.767V12.172a2.034,2.034,0,0,0-2.034-2.034ZM9.459,6.747v3.431a2.624,2.624,0,0,0-2.034,2.672v25.77H6.068V3.356H33.194V6.069H10.137A.678.678,0,0,0,9.459,6.747Zm15.6,31.874a9.494,9.494,0,1,1,9.494-9.494,9.494,9.494,0,0,1-9.494,9.494ZM37.941,15.563h-14a.563.563,0,0,1-.387-.156L18.526,10.66a1.919,1.919,0,0,0-1.316-.522h-6.4V7.425H37.941Z" transform="translate(-1.997 -2)" fill="#2a622e"/>
        <path id="Path_84" data-name="Path 84" d="M32.138,30a8.138,8.138,0,1,0,8.138,8.138A8.138,8.138,0,0,0,32.138,30Zm0,12.207c-3.282.115-6.619-3.5-6.632-3.642a.678.678,0,0,1,0-.854c0-.142,3.391-3.764,6.632-3.642,3.282-.115,6.619,3.5,6.632,3.642a.678.678,0,0,1,0,.854C38.764,38.708,35.413,42.329,32.138,42.207Z" transform="translate(-9.078 -11.012)" fill="#2a622e"/>
        <path id="Path_85" data-name="Path 85" d="M29.639,42.606a10.355,10.355,0,0,1-1.289-1.153A10.356,10.356,0,0,1,29.639,40.3,4.069,4.069,0,0,0,29.639,42.606Z" transform="translate(-10.478 -14.326)" fill="#2a622e"/>
        <path id="Path_86" data-name="Path 86" d="M34.713,38a2.713,2.713,0,1,0,2.713,2.713A2.713,2.713,0,0,0,34.713,38Zm0,3.391a.678.678,0,1,1,.678-.678A.678.678,0,0,1,34.713,41.391Z" transform="translate(-11.653 -13.586)" fill="#2a622e"/>
        <path id="Path_87" data-name="Path 87" d="M43.039,41.453a10.356,10.356,0,0,1-1.289,1.153,4.069,4.069,0,0,0,0-2.306A10.355,10.355,0,0,1,43.039,41.453Z" transform="translate(-14.791 -14.326)" fill="#2a622e"/>
      </g>
    </g>
  </g>
</svg>
