<svg xmlns="http://www.w3.org/2000/svg" width="100" height="100" viewBox="0 0 100 100">
  <g id="Transportations" transform="translate(-1400 -605)">
    <circle id="Ellipse_3" data-name="Ellipse 3" cx="50" cy="50" r="50" transform="translate(1400 605)" fill="#2a622e" opacity="0.1"/>
    <g id="Plane" transform="translate(1377.606 582.78)">
      <path id="Path_77" data-name="Path 77" d="M91.949,53.573a3.776,3.776,0,0,0-5.748-.485l-7.52,7.52L59.028,54.827a1.693,1.693,0,0,0-1.675.427l-2.168,2.168a1.694,1.694,0,0,0,.283,2.623L69.949,69.34l-1.321,1.321a28.136,28.136,0,0,0-3.171,3.805L55.446,73.4a1.7,1.7,0,0,0-1.384.489l-1.387,1.387a1.7,1.7,0,0,0,.284,2.636l8.379,5.377,5.386,8.392a1.69,1.69,0,0,0,2.617.282l1.4-1.4a1.69,1.69,0,0,0,.485-1.374L70.159,79.169A28.12,28.12,0,0,0,73.964,76l1.321-1.321,9.285,14.468a1.708,1.708,0,0,0,2.645.285l2.15-2.15a1.708,1.708,0,0,0,.431-1.69L84.018,65.944l7.377-7.377A3.914,3.914,0,0,0,91.949,53.573Z" transform="translate(0)" fill="#2a622e"/>
    </g>
  </g>
</svg>
