<svg xmlns="http://www.w3.org/2000/svg" width="21.358" height="21.216" viewBox="0 0 21.358 21.216">
  <g id="Back-Arrow" transform="translate(0)">
    <path id="Path_74" data-name="Path 74" d="M5.6,15.53l9.88-9.87a1,1,0,0,1,1.41,1.41l-9.06,9.06,8.8,8.8a1,1,0,0,1,0,1.41h0a1,1,0,0,1-1.42,0L5.6,16.73a.85.85,0,0,1,0-1.2Z" transform="translate(4.23 -5.42)" fill="#231f20"/>
    <path id="Path_75" data-name="Path 75" d="M15.177,15.53l9.88-9.87a1,1,0,0,1,1.41,1.41l-9.06,9.06,8.8,8.8a1,1,0,0,1,0,1.41h0a1,1,0,0,1-1.41,0l-9.62-9.61a.85.85,0,0,1,0-1.2Z" transform="translate(-14.93 -5.42)" fill="#231f20"/>
  </g>
</svg>
