<svg xmlns="http://www.w3.org/2000/svg" width="100" height="100" viewBox="0 0 100 100">
  <g id="bus" transform="translate(-1400 -605)">
    <circle id="Ellipse_3" data-name="Ellipse 3" cx="50" cy="50" r="50" transform="translate(1400 605)" fill="#2a622e" opacity="0.1"/>
    <path id="path1312" d="M216.385,82.481,181.93,81.3Z" transform="translate(1251.109 585.737)" fill="#fff"/>
    <path id="path1310" d="M161.968,69.76a3.185,3.185,0,0,1-1.37-1.326c-.212-.4-.242-.664-.28-2.449a7.13,7.13,0,0,0-.17-2.085,9.833,9.833,0,0,0-1.662-.083l-1.534,0,.033-10.436.033-10.436.968-7.235c.532-3.979,1.044-7.49,1.138-7.8a5.565,5.565,0,0,1,1.7-2.441,16.508,16.508,0,0,1,3.987-1.988,47.2,47.2,0,0,1,5.176-1.229,36,36,0,0,1,14.429.165c6.066,1.183,9.094,2.82,9.945,5.378.154.462.543,3.1,1.174,7.97l.945,7.279V63.815l-1.475,0a9.2,9.2,0,0,0-1.6.083,6.888,6.888,0,0,0-.173,2.03c-.053,2.257-.162,2.646-.929,3.322a2.918,2.918,0,0,1-4.6-1.087,13.092,13.092,0,0,1-.127-2.212c0-1.477-.03-1.818-.175-1.963s-1.273-.175-10.622-.175-10.466.018-10.623.175-.175.493-.176,2.031c0,1.718-.021,1.9-.264,2.413a2.253,2.253,0,0,1-1.294,1.271A3.882,3.882,0,0,1,161.968,69.76Zm2.125-12.442a2.74,2.74,0,0,0,1.787-2.549,2.677,2.677,0,0,0-2.713-2.753,2.389,2.389,0,0,0-1.8.671,2.826,2.826,0,0,0-.107,4.025A2.907,2.907,0,0,0,164.093,57.318Zm27.491-.154a2.7,2.7,0,0,0,0-4.842,2.732,2.732,0,0,0-3.767,1.364,3.282,3.282,0,0,0,.081,2.271A2.72,2.72,0,0,0,191.584,57.164ZM191.806,45a2.063,2.063,0,0,0,.844-.347,2.317,2.317,0,0,0,.415-1.6c-.026-.184-.393-2.821-.816-5.861-.791-5.692-.877-6.086-1.432-6.588-.573-.518-.3-.508-13.968-.513-9.247,0-13.032.031-13.392.121a1.812,1.812,0,0,0-1.319,1.356c-.276.967-1.747,11.839-1.663,12.287a1.426,1.426,0,0,0,1.167,1.151C162.442,45.136,191.125,45.131,191.806,45Zm-6.63-17.361a1.083,1.083,0,0,0,.9-.946,1.277,1.277,0,0,0-.574-1.268c-.2-.091-2.664-.126-8.816-.124-7.922,0-8.555.016-8.776.195a1.22,1.22,0,0,0-.267,1.664.94.94,0,0,0,.528.427c.17.038.36.085.421.106C168.863,27.786,184.775,27.734,185.177,27.641Z" transform="translate(1273.287 609.227)" fill="#2a622e"/>
  </g>
</svg>
