<svg xmlns="http://www.w3.org/2000/svg" xmlns:xlink="http://www.w3.org/1999/xlink" width="155.441" height="174.222" viewBox="0 0 155.441 174.222">
  <defs>
    <clipPath id="clip-path">
      <path id="Path_1" data-name="Path 1" d="M262.114,174.8,241.9,180.609v31.328l20.214-4.492Z" transform="translate(-241.9 -174.8)" fill="#3d3d3b"/>
    </clipPath>
    <clipPath id="clip-path-2">
      <path id="Path_2" data-name="Path 2" d="M262.114,151.1,241.9,156.909v7.009l20.214-5.809Z" transform="translate(-241.9 -151.1)" fill="#3d3d3b"/>
    </clipPath>
    <clipPath id="clip-path-3">
      <path id="Path_3" data-name="Path 3" d="M294.1,174.8h0v32.645l20.214-7.551V179.679Z" transform="translate(-294.1 -174.8)" fill="#3d3d3b"/>
    </clipPath>
    <clipPath id="clip-path-4">
      <path id="Path_4" data-name="Path 4" d="M294.1,151.1h0v7.009l20.214,4.957v-6.622Z" transform="translate(-294.1 -151.1)" fill="#3d3d3b"/>
    </clipPath>
    <clipPath id="clip-path-5">
      <path id="Path_5" data-name="Path 5" d="M57.281,408.477c0-1.781.658-2.9,2.246-2.9s2.246,1.123,2.246,2.9c0,1.975-.658,2.827-2.246,2.827-1.588-.039-2.246-.891-2.246-2.827m-1.781,0c0,3.176,1.51,4.492,3.95,4.492s3.95-1.317,3.95-4.492-1.51-4.492-3.95-4.492-3.95,1.278-3.95,4.492m2.052-7.977c-.077,0-.194,0-.194.194v1.51c0,.077,0,.194.194.194h1.394c.077,0,.194,0,.194-.194v-1.51c0-.078,0-.194-.194-.194Zm2.556,0c-.077,0-.194,0-.194.194v1.51c0,.077,0,.194.194.194H61.5c.077,0,.194,0,.194-.194v-1.51c0-.078,0-.194-.194-.194Z" transform="translate(-55.5 -400.5)" fill="#fff"/>
    </clipPath>
    <clipPath id="clip-path-6">
      <path id="Path_6" data-name="Path 6" d="M81.517,410.7c-.077,0-.194,0-.194.194V419.8c0,1.2-.542,1.781-1.665,1.781h-.465c-.077,0-.194,0-.194.194v1.2c0,.077,0,.194.194.194h.387q3.369,0,3.369-3.369v-1.317a2.276,2.276,0,0,0,1.665.658h.465c.658,0,.852-.077.852-.852,0-.581-.271-.736-.852-.736h-.194c-1.2,0-1.859-.465-1.859-1.394v-5.228c0-.078,0-.194-.194-.194H81.517Z" transform="translate(-79 -410.7)" fill="#fff"/>
    </clipPath>
    <clipPath id="clip-path-7">
      <path id="Path_7" data-name="Path 7" d="M93.858,428.1c-.581,0-.658.194-.658.852,0,.581.077.736.658.736H96.1c.658,0,.852-.194.852-.852,0-.542-.271-.736-.852-.736Z" transform="translate(-93.2 -428.1)" fill="#fff"/>
    </clipPath>
    <clipPath id="clip-path-8">
      <path id="Path_8" data-name="Path 8" d="M99.658,428.1c-.581,0-.658.194-.658.852,0,.581.077.736.658.736H101.9c.658,0,.852-.194.852-.852,0-.542-.271-.736-.852-.736Z" transform="translate(-99 -428.1)" fill="#fff"/>
    </clipPath>
    <clipPath id="clip-path-9">
      <path id="Path_9" data-name="Path 9" d="M105.758,428.1c-.542,0-.658.194-.658.852,0,.581.077.736.658.736H108c.658,0,.852-.194.852-.852,0-.542-.271-.736-.852-.736Z" transform="translate(-105.1 -428.1)" fill="#fff"/>
    </clipPath>
    <clipPath id="clip-path-10">
      <path id="Path_10" data-name="Path 10" d="M115.218,414.053c0-1.781.658-2.827,2.246-2.9,1.588,0,2.246,1.123,2.246,2.9,0,1.975-.658,2.827-2.246,2.827-1.626-.039-2.246-.891-2.246-2.827m-1.7.077v.852c0,1.394-.658,1.859-1.317,1.859h-1.046c-.658,0-.852.077-.852.736a.743.743,0,0,0,.852.852h.929a2.421,2.421,0,0,0,2.323-1.046,4.308,4.308,0,0,0,3.1,1.2,3.82,3.82,0,0,0,2.9-1.123,2.613,2.613,0,0,0,2.323.929h.465c.658,0,.852-.078.852-.852,0-.581-.271-.736-.852-.736h-.658c-.658,0-1.317-.387-1.317-1.781a3.772,3.772,0,0,0,.077-.929c0-3.175-1.394-4.492-3.95-4.492-2.323.039-3.834,1.355-3.834,4.531" transform="translate(-110.3 -409.6)" fill="#fff"/>
    </clipPath>
    <clipPath id="clip-path-11">
      <path id="Path_11" data-name="Path 11" d="M145.44,412.27a5.4,5.4,0,0,1,2.517-.658c1.51,0,2.517.387,2.517,1.781a3.987,3.987,0,0,1-2.052,3.1,6.059,6.059,0,0,0-2.982-4.221m2.711-1.9a8.353,8.353,0,0,0-4.027,1.046c-.077,0-.194.194-.194.387v1.2c0,.077.077.194.271.387,1.2.929,2.324,1.588,2.827,3.834a7.244,7.244,0,0,1-1.781.194h-2.595c-.658,0-.852.077-.852.736a.743.743,0,0,0,.852.852h2.827a6.648,6.648,0,0,0,2.827-.658,4.933,4.933,0,0,0,2.633.658h2.827c.658,0,.852-.271.852-.929,0-.581-.271-.736-.852-.736h-3.1a1.71,1.71,0,0,1-.658-.077,5.014,5.014,0,0,0,2.323-3.95c0-1.781-1.162-2.943-3.369-2.943a5.713,5.713,0,0,0-.813,0" transform="translate(-141.8 -410.356)" fill="#fff"/>
    </clipPath>
    <clipPath id="clip-path-12">
      <path id="Path_12" data-name="Path 12" d="M171.458,428.1c-.542,0-.658.194-.658.852,0,.581.077.736.658.736H173.7c.658,0,.852-.194.852-.852,0-.542-.271-.736-.852-.736Z" transform="translate(-170.8 -428.1)" fill="#fff"/>
    </clipPath>
    <clipPath id="clip-path-13">
      <path id="Path_13" data-name="Path 13" d="M177.258,428.1c-.581,0-.658.194-.658.852,0,.581.077.736.658.736H179.5c.658,0,.852-.194.852-.852,0-.542-.271-.736-.852-.736Z" transform="translate(-176.6 -428.1)" fill="#fff"/>
    </clipPath>
    <clipPath id="clip-path-14">
      <path id="Path_14" data-name="Path 14" d="M185.192,396.139c-.077,0-.194,0-.194.194v11.036c0,.736-.271,1.046-.929,1.046h-1.317c-.658,0-.852.271-.852.929,0,.581.271.736.852.736l1.51.078c1.781,0,2.44-.852,2.44-2.633v-11.23c0-.077,0-.194-.194-.194h-1.317Z" transform="translate(-181.9 -396.1)" fill="#fff"/>
    </clipPath>
    <clipPath id="clip-path-15">
      <path id="Path_15" data-name="Path 15" d="M202.194,396.2c-.077,0-.194,0-.194.194v13.554c0,.078,0,.194.194.194h1.317c.077,0,.194,0,.194-.194V396.394c0-.077,0-.194-.194-.194Z" transform="translate(-202 -396.2)" fill="#fff"/>
    </clipPath>
    <clipPath id="clip-path-16">
      <path id="Path_16" data-name="Path 16" d="M214.688,414.147c0-1.859.929-2.982,2.246-2.982,1.51,0,2.169,1.123,2.169,2.9v2.711H217.05c-1.626,0-2.362-.658-2.362-2.633m-1.588,0c0,3.175,1.51,4.221,3.95,4.221h2.169v.465a1.737,1.737,0,0,1-1.975,1.975h-2.517c-.077,0-.194,0-.194.194v1.2c0,.077,0,.194.194.194h2.711c2.169,0,3.563-1.123,3.563-3.64v-4.763c0-3.175-1.394-4.492-3.95-4.492-2.169,0-3.95,1.471-3.95,4.647" transform="translate(-213.1 -409.5)" fill="#fff"/>
    </clipPath>
    <clipPath id="clip-path-17">
      <path id="Path_17" data-name="Path 17" d="M256.921,420.141c-.077,0-.194,0-.194.194v1.51c0,.077,0,.194.194.194h1.394c.077,0,.194,0,.194-.194v-1.51c0-.078,0-.194-.194-.194Zm-3.911-9.178c-.077.077,0,.194.077.271l.929.736a.187.187,0,0,0,.271,0,3.05,3.05,0,0,1,2.323-1.046c2.169,0,2.788,1.51,2.788,3.64,0,1.51-.271,1.975-1.781,1.975H254.4a2.736,2.736,0,0,0-2.9,2.9c0,1.975,1.2,2.827,3.369,2.827v-.194h.658c.077,0,.194,0,.194-.194v-1.2c0-.077,0-.194-.194-.194h-.658c-1.394,0-1.781-.271-1.781-1.2,0-.658.271-1.2,1.123-1.2h3.95a2.451,2.451,0,0,0,2.517-1.2,1.962,1.962,0,0,0,2.052,1.2h.465c.658,0,.852-.077.852-.852,0-.581-.271-.736-.852-.736H263c-1.123,0-1.781-.465-1.859-1.317a1.879,1.879,0,0,1,0-.658c0-2.711-.929-5.228-4.686-5.228a4.148,4.148,0,0,0-3.447,1.665" transform="translate(-251.5 -409.296)" fill="#fff"/>
    </clipPath>
    <clipPath id="clip-path-18">
      <path id="Path_18" data-name="Path 18" d="M280.958,428.1c-.581,0-.658.194-.658.852,0,.581.077.736.658.736H283.2c.658,0,.852-.194.852-.852,0-.542-.271-.736-.852-.736Z" transform="translate(-280.3 -428.1)" fill="#fff"/>
    </clipPath>
    <clipPath id="clip-path-19">
      <path id="Path_19" data-name="Path 19" d="M286.758,428.1c-.581,0-.658.194-.658.852,0,.581.077.736.658.736H289c.658,0,.852-.194.852-.852,0-.542-.271-.736-.852-.736Z" transform="translate(-286.1 -428.1)" fill="#fff"/>
    </clipPath>
    <clipPath id="clip-path-20">
      <path id="Path_20" data-name="Path 20" d="M292.758,428.1c-.581,0-.658.194-.658.852,0,.581.077.736.658.736H295c.658,0,.852-.194.852-.852,0-.542-.271-.736-.852-.736Z" transform="translate(-292.1 -428.1)" fill="#fff"/>
    </clipPath>
    <clipPath id="clip-path-21">
      <path id="Path_21" data-name="Path 21" d="M299.369,411.1c-.077.077,0,.194.078.271l.929.736a.187.187,0,0,0,.271,0,3.224,3.224,0,0,1,2.169-1.123c2.169,0,2.827,1.51,2.827,3.64,0,1.51-.271,1.975-1.781,1.975h-5.809c-.658,0-.852.077-.852.736a.758.758,0,0,0,.852.852h6.467a2.451,2.451,0,0,0,2.517-1.2,1.962,1.962,0,0,0,2.052,1.2h.465c.658,0,.852-.078.852-.852,0-.542-.271-.736-.852-.736h-.194c-1.123,0-1.781-.465-1.859-1.317a1.88,1.88,0,0,1,0-.658c0-2.711-.929-5.228-4.686-5.228a4.391,4.391,0,0,0-3.447,1.7" transform="translate(-297.2 -409.4)" fill="#fff"/>
    </clipPath>
    <clipPath id="clip-path-22">
      <path id="Path_22" data-name="Path 22" d="M330.392,396.139c-.077,0-.194,0-.194.194v11.036c0,.736-.271,1.046-.929,1.046h-1.317c-.658,0-.852.271-.852.929,0,.581.271.736.852.736l1.51.078c1.781,0,2.44-.852,2.44-2.633v-11.23c0-.077,0-.194-.194-.194h-1.317Z" transform="translate(-327.1 -396.1)" fill="#fff"/>
    </clipPath>
    <clipPath id="clip-path-23">
      <path id="Path_23" data-name="Path 23" d="M347.194,396.2c-.077,0-.194,0-.194.194v13.554c0,.078,0,.194.194.194h1.317c.077,0,.194,0,.194-.194V396.394c0-.077,0-.194-.194-.194Z" transform="translate(-347 -396.2)" fill="#fff"/>
    </clipPath>
    <clipPath id="clip-path-24">
      <path id="Path_24" data-name="Path 24" d="M372.181,408.477c0-1.781.658-2.827,2.246-2.9,1.588,0,2.246,1.123,2.246,2.9,0,1.975-.658,2.827-2.246,2.827-1.588-.039-2.246-.891-2.246-2.827m-1.781,0c0,3.176,1.51,4.492,3.911,4.492,2.44,0,3.95-1.317,3.95-4.492s-1.51-4.492-3.95-4.492c-2.4,0-3.911,1.278-3.911,4.492m1.975-7.977c-.077,0-.194,0-.194.194v1.51c0,.077,0,.194.194.194h1.394c.077,0,.194,0,.194-.194v-1.51c0-.078,0-.194-.194-.194Zm2.517,0c-.077,0-.194,0-.194.194v1.51c0,.077,0,.194.194.194h1.394c.077,0,.194,0,.194-.194v-1.51c0-.078,0-.194-.194-.194Z" transform="translate(-370.4 -400.5)" fill="#fff"/>
    </clipPath>
    <clipPath id="clip-path-25">
      <path id="Path_25" data-name="Path 25" d="M396.356,410.7c-.077,0-.194,0-.194.194V419.8c0,1.2-.581,1.781-1.7,1.781h-.465c-.077,0-.194,0-.194.194v1.2c0,.077,0,.194.194.194h.465q3.369,0,3.369-3.369v-8.907c0-.077,0-.194-.194-.194Z" transform="translate(-393.8 -410.7)" fill="#fff"/>
    </clipPath>
    <clipPath id="clip-path-26">
      <path id="Path_26" data-name="Path 26" d="M411.694,396.2c-.077,0-.194,0-.194.194v13.554c0,.078,0,.194.194.194h1.317c.078,0,.194,0,.194-.194V396.394c0-.077,0-.194-.194-.194Z" transform="translate(-411.5 -396.2)" fill="#fff"/>
    </clipPath>
    <clipPath id="clip-path-27">
      <path id="Path_27" data-name="Path 27" d="M422.017,404.45c-.077,0-.194,0-.194.194v8.907c0,1.2-.581,1.781-1.665,1.781h-.465c-.077,0-.194,0-.194.194v1.2c0,.077,0,.194.194.194h.465q3.369,0,3.369-3.369v-8.907c0-.077,0-.194-.194-.194Zm.116-3.95c-.077,0-.194,0-.194.194v1.51c0,.077,0,.194.194.194h1.394c.077,0,.194,0,.194-.194v-1.51c0-.078,0-.194-.194-.194Z" transform="translate(-419.5 -400.5)" fill="#fff"/>
    </clipPath>
    <clipPath id="clip-path-28">
      <path id="Path_28" data-name="Path 28" d="M438.1,414.147c0-1.859.929-2.982,2.246-2.982,1.51,0,2.169,1.123,2.169,2.9v2.711h-2.052c-1.626,0-2.362-.658-2.362-2.633m-1.7,0c0,3.175,1.51,4.221,3.95,4.221H442.6v.465a1.737,1.737,0,0,1-1.975,1.975H438.1c-.077,0-.194,0-.194.194v1.2c0,.077,0,.194.194.194h2.633c2.169,0,3.563-1.123,3.563-3.64v-4.763c0-3.175-1.394-4.492-3.911-4.492-2.207,0-3.989,1.471-3.989,4.647" transform="translate(-436.4 -409.5)" fill="#fff"/>
    </clipPath>
    <clipPath id="clip-path-29">
      <path id="Path_29" data-name="Path 29" d="M61.364,460.2c-.077,0-.077,0-.194.078l-2.323,5.344H58.73l-2.323-5.344a.3.3,0,0,0-.194-.078h-.736a.076.076,0,0,0-.077.078h.194v7.667a.076.076,0,0,0,.077.077h.736a.076.076,0,0,0,.077-.077V462.64l1.859,4.1a.3.3,0,0,0,.194.077H59c.077,0,.077,0,.194-.077l1.975-4.3h.077v5.538a.076.076,0,0,0,.077.077h.736a.076.076,0,0,0,.077-.077v-7.667a.076.076,0,0,0-.077-.078h-.7Z" transform="translate(-55.4 -460.2)"/>
    </clipPath>
    <linearGradient id="linear-gradient" x1="-5.74" y1="9.616" x2="-5.603" y2="9.616" gradientUnits="objectBoundingBox">
      <stop offset="0" stop-color="#cf9921"/>
      <stop offset="0.31" stop-color="#ebcd95"/>
      <stop offset="0.74" stop-color="#ffda7e"/>
      <stop offset="1" stop-color="#ae782c"/>
    </linearGradient>
    <clipPath id="clip-path-30">
      <path id="Path_30" data-name="Path 30" d="M77.877,460.2a.076.076,0,0,0-.077.078v7.667a.076.076,0,0,0,.077.077h.736a.076.076,0,0,0,.077-.077v-7.667a.076.076,0,0,0-.077-.078Z" transform="translate(-77.8 -460.2)"/>
    </clipPath>
    <linearGradient id="linear-gradient-2" x1="-51.468" y1="9.61" x2="-50.461" y2="9.61" xlink:href="#linear-gradient"/>
    <clipPath id="clip-path-31">
      <path id="Path_31" data-name="Path 31" d="M90.124,460.2a.076.076,0,0,0-.077.078v5.886H89.97l-3.563-5.886a.3.3,0,0,0-.194-.078h-.736a.076.076,0,0,0-.077.078v7.667a.076.076,0,0,0,.077.077h.736a.076.076,0,0,0,.077-.077v-5.886h.077l3.563,5.886a.3.3,0,0,0,.194.077h.736a.076.076,0,0,0,.077-.077v-7.667a.076.076,0,0,0-.077-.078Z" transform="translate(-85.4 -460.2)"/>
    </clipPath>
    <linearGradient id="linear-gradient-3" x1="-9.036" y1="9.604" x2="-8.869" y2="9.604" xlink:href="#linear-gradient"/>
    <clipPath id="clip-path-32">
      <path id="Path_32" data-name="Path 32" d="M104.677,460.2a.076.076,0,0,0-.077.078v7.667a.076.076,0,0,0,.077.077h.736a.076.076,0,0,0,.077-.077v-7.667a.076.076,0,0,0-.077-.078Z" transform="translate(-104.6 -460.2)"/>
    </clipPath>
    <linearGradient id="linear-gradient-4" x1="-62.635" y1="9.598" x2="-61.628" y2="9.598" xlink:href="#linear-gradient"/>
    <clipPath id="clip-path-33">
      <path id="Path_33" data-name="Path 33" d="M111,461.939c0,1.317.852,2.052,2.323,2.246h.465c1.317.271,1.7.658,1.7,1.317,0,.736-.658,1.317-1.781,1.317a3.96,3.96,0,0,1-2.246-.736c-.077-.077-.077-.077-.194,0l-.465.658c-.077.077-.077.077,0,.194a4.579,4.579,0,0,0,2.517.929c1.975,0,2.9-1.046,2.9-2.323,0-1.317-.852-2.052-2.323-2.246l-.387-.077c-1.2-.194-1.7-.581-1.7-1.2,0-.852.581-1.317,1.51-1.317a3.664,3.664,0,0,1,1.975.581c.077.077.077.077.194,0l.387-.658c.077-.077.077-.077,0-.194a3.7,3.7,0,0,0-2.323-.736A2.21,2.21,0,0,0,111,461.939" transform="translate(-110.75 -459.688)"/>
    </clipPath>
    <linearGradient id="linear-gradient-5" x1="-10.932" y1="9.175" x2="-10.763" y2="9.175" xlink:href="#linear-gradient"/>
    <clipPath id="clip-path-34">
      <path id="Path_34" data-name="Path 34" d="M127.677,460.2a.076.076,0,0,0-.077.078v.736a.076.076,0,0,0,.077.077h2.169c.077,0,.077,0,.077.077v6.738a.076.076,0,0,0,.077.077h.852a.076.076,0,0,0,.077-.077v-6.738c0-.077,0-.077.077-.077h2.169a.076.076,0,0,0,.077-.077v-.736a.076.076,0,0,0-.077-.078Z" transform="translate(-127.6 -460.2)"/>
    </clipPath>
    <linearGradient id="linear-gradient-6" x1="-11.791" y1="9.586" x2="-11.626" y2="9.586" xlink:href="#linear-gradient"/>
    <clipPath id="clip-path-35">
      <path id="Path_35" data-name="Path 35" d="M146.629,463.885v-2.517c0-.077,0-.077.077-.077h1.781c1.046,0,1.51.465,1.51,1.317s-.581,1.317-1.51,1.317l-1.781.077c-.077-.039-.077-.039-.077-.116m-.852-3.446a.076.076,0,0,0-.077.077v7.667a.076.076,0,0,0,.077.078h.736a.076.076,0,0,0,.077-.078v-3.175c0-.077,0-.077.077-.077h1.7l1.588,3.175c.077,0,.077.077.194.077l1.046.078c.194,0,.194,0,.077-.078l-1.7-3.369a2.258,2.258,0,0,0,1.51-2.169,2.3,2.3,0,0,0-2.517-2.246h-2.788Z" transform="translate(-145.7 -460.4)"/>
    </clipPath>
    <linearGradient id="linear-gradient-7" x1="-13.022" y1="9.563" x2="-12.858" y2="9.563" xlink:href="#linear-gradient"/>
    <clipPath id="clip-path-36">
      <path id="Path_36" data-name="Path 36" d="M166.6,460.5c-.077,0-.077,0-.194.077l-1.781,3.369-1.781-3.369c-.077,0-.077-.077-.194-.077H161.8c-.077,0-.194,0-.077.077l2.323,4.492v3.1a.076.076,0,0,0,.077.078h.852a.076.076,0,0,0,.077-.078v-3.1l2.323-4.492a.076.076,0,0,0-.077-.077Z" transform="translate(-161.673 -460.5)"/>
    </clipPath>
    <linearGradient id="linear-gradient-8" x1="-13.822" y1="9.651" x2="-13.66" y2="9.651" xlink:href="#linear-gradient"/>
    <clipPath id="clip-path-37">
      <path id="Path_37" data-name="Path 37" d="M186.223,465.58a7.4,7.4,0,0,1-.194-1.975,5.818,5.818,0,0,1,.194-1.975,1.524,1.524,0,0,1,1.7-1.2,1.6,1.6,0,0,1,1.7,1.2,7.4,7.4,0,0,1,.194,1.975,5.654,5.654,0,0,1-.194,1.975c-.194.852-.736,1.2-1.7,1.2a1.573,1.573,0,0,1-1.7-1.2m-.929-4.221a10.417,10.417,0,0,0-.194,2.246,5.937,5.937,0,0,0,.194,2.246,2.451,2.451,0,0,0,2.633,1.859,2.6,2.6,0,0,0,2.711-1.859,10.418,10.418,0,0,0,.194-2.246,5.937,5.937,0,0,0-.194-2.246,2.723,2.723,0,0,0-2.711-1.859,2.509,2.509,0,0,0-2.633,1.859" transform="translate(-185.1 -459.5)"/>
    </clipPath>
    <linearGradient id="linear-gradient-9" x1="-15.702" y1="9.145" x2="-15.538" y2="9.145" xlink:href="#linear-gradient"/>
    <clipPath id="clip-path-38">
      <path id="Path_38" data-name="Path 38" d="M204.077,460.2a.076.076,0,0,0-.077.078l.077,7.59a.076.076,0,0,0,.077.077h.736a.076.076,0,0,0,.077-.077v-3.175c0-.077,0-.077.077-.077h3.175a.076.076,0,0,0,.077-.077V463.8a.076.076,0,0,0-.077-.077h-3.175c-.077,0-.077,0-.077-.077v-2.323c0-.077,0-.077.077-.077H208.8a.076.076,0,0,0,.077-.077v-.736a.076.076,0,0,0-.077-.078h-4.724Z" transform="translate(-204 -460.2)"/>
    </clipPath>
    <linearGradient id="linear-gradient-10" x1="-19.502" y1="9.648" x2="-19.313" y2="9.648" xlink:href="#linear-gradient"/>
    <clipPath id="clip-path-39">
      <path id="Path_39" data-name="Path 39" d="M232.031,460.2a.076.076,0,0,0-.077.078v3.175c0,.077,0,.077-.077.077h-3.408c-.077,0-.077,0-.077-.077v-3.175a.076.076,0,0,0-.077-.078h-.736a.076.076,0,0,0-.077.078v7.667a.076.076,0,0,0,.077.077h.736a.076.076,0,0,0,.077-.077v-3.369c0-.077,0-.077.077-.077h3.369c.077,0,.077,0,.077.077v3.369a.076.076,0,0,0,.077.077h.736a.076.076,0,0,0,.077-.077v-7.667a.076.076,0,0,0-.077-.078Z" transform="translate(-227.5 -460.2)"/>
    </clipPath>
    <linearGradient id="linear-gradient-11" x1="-19.509" y1="9.542" x2="-19.336" y2="9.542" xlink:href="#linear-gradient"/>
    <clipPath id="clip-path-40">
      <path id="Path_40" data-name="Path 40" d="M248.23,461.788l1.2,3.563h-2.44Zm-.465-1.588a.076.076,0,0,0-.077.078l-2.788,7.667a.076.076,0,0,0,.077.077h.736c.077,0,.077,0,.194-.077l.658-1.7h3.175l.658,1.7c.077,0,.077.077.194.077h.736c.077,0,.077,0,.077-.077l-2.711-7.667c-.077,0-.077-.078-.194-.078Z" transform="translate(-244.9 -460.2)"/>
    </clipPath>
    <linearGradient id="linear-gradient-12" x1="-17.191" y1="9.534" x2="-17.048" y2="9.534" xlink:href="#linear-gradient"/>
    <clipPath id="clip-path-41">
      <path id="Path_41" data-name="Path 41" d="M266.463,460.2a.076.076,0,0,0-.077.078v5.266c0,1.2-.542,1.7-1.51,1.7a1.776,1.776,0,0,1-1.123-.465c-.077-.077-.077-.077-.194,0l-.581.465c0,.077,0,.077-.077.194a2.808,2.808,0,0,0,1.859.736,2.3,2.3,0,0,0,2.517-2.633v-5.228a.076.076,0,0,0-.077-.078h-.736Z" transform="translate(-262.9 -460.2)"/>
    </clipPath>
    <linearGradient id="linear-gradient-13" x1="-27.072" y1="9.435" x2="-26.86" y2="9.435" xlink:href="#linear-gradient"/>
    <clipPath id="clip-path-42">
      <path id="Path_42" data-name="Path 42" d="M281.024,460.2a.076.076,0,0,0-.077.078v5.266c0,1.2-.581,1.7-1.51,1.7a1.776,1.776,0,0,1-1.123-.465c-.077-.077-.077-.077-.194,0l-.542.465c0,.077,0,.077-.077.194a2.808,2.808,0,0,0,1.859.736,2.3,2.3,0,0,0,2.517-2.633v-5.228a.076.076,0,0,0-.077-.078h-.774Z" transform="translate(-277.5 -460.2)"/>
    </clipPath>
    <linearGradient id="linear-gradient-14" x1="-28.344" y1="9.428" x2="-28.132" y2="9.428" xlink:href="#linear-gradient"/>
    <clipPath id="clip-path-43">
      <path id="Path_43" data-name="Path 43" d="M302.146,461.788l1.2,3.563h-2.44Zm-.465-1.588a.076.076,0,0,0-.077.078l-2.9,7.667a.076.076,0,0,0,.077.077h.736c.077,0,.077,0,.194-.077l.658-1.7h3.292l.658,1.7c.077,0,.077.077.194.077h.736c.077,0,.077,0,.077-.077l-2.711-7.667c-.077,0-.077-.078-.194-.078Z" transform="translate(-298.7 -460.2)"/>
    </clipPath>
    <linearGradient id="linear-gradient-15" x1="-20.025" y1="9.511" x2="-19.884" y2="9.511" xlink:href="#linear-gradient"/>
    <clipPath id="clip-path-44">
      <path id="Path_44" data-name="Path 44" d="M323.524,460.2a.076.076,0,0,0-.077.078v5.886h-.077l-3.563-5.886a.3.3,0,0,0-.194-.078h-.736a.076.076,0,0,0-.077.078v7.667a.076.076,0,0,0,.077.077h.736a.076.076,0,0,0,.077-.077v-5.886h.077l3.563,5.886a.3.3,0,0,0,.194.077h.736a.076.076,0,0,0,.077-.077v-7.667a.076.076,0,0,0-.077-.078Z" transform="translate(-318.8 -460.2)"/>
    </clipPath>
    <linearGradient id="linear-gradient-16" x1="-25.133" y1="9.503" x2="-24.966" y2="9.503" xlink:href="#linear-gradient"/>
    <clipPath id="clip-path-45">
      <path id="Path_45" data-name="Path 45" d="M339.107,461.123c0-.077,0-.077.077-.077h1.51c.929,0,1.51.271,1.781,1.046a6.694,6.694,0,0,1,.194,1.975,5.174,5.174,0,0,1-.194,1.975,1.645,1.645,0,0,1-1.781,1.046l-1.51-.078h-.077Zm-.929-1.046a.076.076,0,0,0-.077.077v7.667a.076.076,0,0,0,.077.077h2.633a2.365,2.365,0,0,0,2.517-1.7,9.819,9.819,0,0,0,.194-2.246,7.9,7.9,0,0,0-.194-2.246,2.31,2.31,0,0,0-2.517-1.7h-2.633Z" transform="translate(-338.1 -460)"/>
    </clipPath>
    <linearGradient id="linear-gradient-17" x1="-27.416" y1="9.494" x2="-27.243" y2="9.494" xlink:href="#linear-gradient"/>
    <clipPath id="clip-path-46">
      <path id="Path_46" data-name="Path 46" d="M368.131,460.2a.076.076,0,0,0-.077.078v4.957c0,1.317-.658,1.975-1.781,1.975s-1.781-.658-1.781-1.975v-4.957a.076.076,0,0,0-.077-.078h-.736a.076.076,0,0,0-.077.078v5.073a2.579,2.579,0,0,0,2.633,2.9,2.61,2.61,0,0,0,2.827-2.9v-5.073a.076.076,0,0,0-.077-.078Z" transform="translate(-363.6 -460.2)"/>
    </clipPath>
    <linearGradient id="linear-gradient-18" x1="-29.223" y1="9.255" x2="-29.051" y2="9.255" xlink:href="#linear-gradient"/>
    <clipPath id="clip-path-47">
      <path id="Path_47" data-name="Path 47" d="M388.625,460.2c-.077,0-.077,0-.194.078l-2.323,5.344h-.077l-2.323-5.344a.3.3,0,0,0-.194-.078h-.736a.076.076,0,0,0-.077.078v7.667a.076.076,0,0,0,.077.077h.736a.076.076,0,0,0,.077-.077v-5.5h.077l1.975,4.3a.3.3,0,0,0,.194.077h.465c.077,0,.077,0,.194-.077l1.975-4.3h.077v5.538a.076.076,0,0,0,.077.077h.736a.076.076,0,0,0,.077-.077v-7.667a.076.076,0,0,0-.077-.078h-.736Z" transform="translate(-382.7 -460.2)"/>
    </clipPath>
    <linearGradient id="linear-gradient-19" x1="-24.331" y1="9.474" x2="-24.194" y2="9.474" xlink:href="#linear-gradient"/>
    <clipPath id="clip-path-48">
      <path id="Path_48" data-name="Path 48" d="M405.807,463.885v-2.517c0-.077,0-.077.077-.077h1.859c1.046,0,1.51.465,1.51,1.317s-.581,1.317-1.51,1.317l-1.859.077c-.077-.039-.077-.039-.077-.116m-.929-3.446a.076.076,0,0,0-.077.077v7.667a.076.076,0,0,0,.077.078h.736a.076.076,0,0,0,.077-.078v-3.175c0-.077,0-.077.077-.077h1.781l1.588,3.175c.077,0,.077.077.194.077l.929.078c.194,0,.194,0,.077-.078l-1.7-3.369a2.258,2.258,0,0,0,1.51-2.169,2.3,2.3,0,0,0-2.517-2.246h-2.749Z" transform="translate(-404.8 -460.4)"/>
    </clipPath>
    <linearGradient id="linear-gradient-20" x1="-30.648" y1="9.451" x2="-30.483" y2="9.451" xlink:href="#linear-gradient"/>
    <clipPath id="clip-path-49">
      <path id="Path_49" data-name="Path 49" d="M424.63,461.788l1.2,3.563h-2.44Zm-.465-1.588a.076.076,0,0,0-.078.078l-2.788,7.667a.076.076,0,0,0,.077.077h.736c.078,0,.078,0,.194-.077l.658-1.7h3.175l.658,1.7c.077,0,.077.077.194.077h.736c.078,0,.078,0,.078-.077l-2.711-7.667c-.077,0-.077-.078-.194-.078Z" transform="translate(-421.3 -460.2)"/>
    </clipPath>
    <linearGradient id="linear-gradient-21" x1="-27.629" y1="9.458" x2="-27.486" y2="9.458" xlink:href="#linear-gradient"/>
    <clipPath id="clip-path-50">
      <path id="Path_50" data-name="Path 50" d="M445.37,460.2a.076.076,0,0,0-.077.078v3.175c0,.077,0,.077-.078.077h-3.369c-.078,0-.078,0-.078-.077v-3.175a.076.076,0,0,0-.077-.078h-.813a.076.076,0,0,0-.077.078h.077v7.667a.076.076,0,0,0,.077.077h.736a.076.076,0,0,0,.077-.077v-3.369c0-.077,0-.077.077-.077h3.369c.078,0,.078,0,.078.077v3.369a.076.076,0,0,0,.077.077h.658a.076.076,0,0,0,.077-.077v-7.667a.076.076,0,0,0-.077-.078Z" transform="translate(-440.8 -460.2)"/>
    </clipPath>
    <linearGradient id="linear-gradient-22" x1="-34.752" y1="9.45" x2="-34.579" y2="9.45" xlink:href="#linear-gradient"/>
    <clipPath id="clip-path-51">
      <path id="Path_51" data-name="Path 51" d="M182.36,32.378c-19.75,33.961-46.624,41.745-46.9,41.939l-.387.194L135,86.011h.465l1.394-10.572c3.1-2.633,27.611-4.221,46.237-35.743,18.355,31.522,44.378,33.226,47.631,35.743l1.317,10.688h.465v-11.5l-.387-.271c-.271-.194-28.927-7.939-48.29-41.939L183.1,31.1Z" transform="translate(-135 -31.1)"/>
    </clipPath>
    <radialGradient id="radial-gradient" cx="0.491" cy="1.456" r="1.273" gradientTransform="translate(-0.324) scale(0.564 1)" xlink:href="#linear-gradient"/>
    <clipPath id="clip-path-52">
      <rect id="Rectangle_54" data-name="Rectangle 54" width="24.9" height="4.492"/>
    </clipPath>
    <radialGradient id="radial-gradient-2" cx="1.158" cy="-16.766" r="18.64" gradientTransform="translate(-2.923) scale(0.18 1)" gradientUnits="objectBoundingBox">
      <stop offset="0" stop-color="#ab882a"/>
      <stop offset="0.038" stop-color="#ab882a"/>
      <stop offset="0.169" stop-color="#9e8435"/>
      <stop offset="0.317" stop-color="#8f803c"/>
      <stop offset="0.656" stop-color="#3b7937"/>
      <stop offset="1" stop-color="#174724"/>
    </radialGradient>
    <clipPath id="clip-path-53">
      <rect id="Rectangle_56" data-name="Rectangle 56" width="23.854" height="4.492"/>
    </clipPath>
    <radialGradient id="radial-gradient-3" cx="1.162" cy="-15.619" r="18.64" gradientTransform="translate(-3.06) scale(0.188 1)" xlink:href="#radial-gradient-2"/>
    <clipPath id="clip-path-54">
      <path id="Path_52" data-name="Path 52" d="M154.276,286.988c-4.027,3.756-13.476,12.353-13.476,12.353,44.921-8.055,74.313-29.779,91.7-49.142-42.752,31.057-69.24,35.278-78.224,36.788" transform="translate(-140.8 -250.2)"/>
    </clipPath>
    <radialGradient id="radial-gradient-4" cx="0.51" cy="-1.16" r="2.033" gradientTransform="translate(-0.377) scale(0.536 1)" xlink:href="#linear-gradient"/>
    <clipPath id="clip-path-55">
      <path id="Path_53" data-name="Path 53" d="M264.3,333.221a174.91,174.91,0,0,0,44.533,14.212s-9.449-8.6-13.476-12.353a122.661,122.661,0,0,1-23.39-6.08c-1.278.736-3.64,2.13-7.668,4.221" transform="translate(-264.3 -329)"/>
    </clipPath>
    <radialGradient id="radial-gradient-5" cx="-0.025" cy="-4.748" r="5.419" gradientTransform="translate(-1.61) scale(0.414 1)" xlink:href="#linear-gradient"/>
    <clipPath id="clip-path-56">
      <path id="Path_54" data-name="Path 54" d="M179.559,279.286c1.7-.658,4.492-1.781,7.474-3.1-12.082-5.344-26.875-13.67-44.533-26.488a146.617,146.617,0,0,0,37.059,29.586" transform="translate(-142.5 -249.7)"/>
    </clipPath>
    <radialGradient id="radial-gradient-6" cx="1.035" cy="-1.92" r="3.376" gradientTransform="translate(-0.567) scale(0.664 1)" xlink:href="#linear-gradient"/>
    <clipPath id="clip-path-57">
      <path id="Path_55" data-name="Path 55" d="M174.9,221.9v6.08a150.01,150.01,0,0,0,25.829,6.661V221.9Z" transform="translate(-174.9 -221.9)"/>
    </clipPath>
    <radialGradient id="radial-gradient-7" cx="1.149" cy="-6.277" r="6.532" gradientTransform="translate(-1.714) scale(0.495 1)" xlink:href="#radial-gradient-2"/>
    <clipPath id="clip-path-58">
      <path id="Path_56" data-name="Path 56" d="M201.343,120.184a.574.574,0,0,0-.465.542c0,.194.194.465.387.465l-.077.736a.851.851,0,0,0-.465.658.833.833,0,0,0,.387.581l-.077.736a.712.712,0,0,0-.465.658.981.981,0,0,0,.387.658v.271s-1.046,3.369-10.03,8.248a15.858,15.858,0,0,0-8.248,11.308,14.65,14.65,0,0,0-.194,2.9h22.848V137.107s3.95-1.046,8.055-2.323a50.855,50.855,0,0,1-11.424-9.178v-.271a.981.981,0,0,0,.387-.658.78.78,0,0,0-.465-.736l-.077-.736a.763.763,0,0,0,.387-.581.754.754,0,0,0-.465-.658l-.077-.736c.194-.077.465-.271.465-.465a.574.574,0,0,0-.465-.542l-.077-1.123Z" transform="translate(-182.474 -119.1)"/>
    </clipPath>
    <radialGradient id="radial-gradient-8" cx="0.87" cy="-1.404" r="2.895" gradientTransform="translate(-0.194) scale(0.934 1)" xlink:href="#radial-gradient-2"/>
    <clipPath id="clip-path-59">
      <path id="Path_57" data-name="Path 57" d="M135.3,220.971c1.123.929,3.175,2.517,3.175,2.517,18.162,13.205,33.3,21.415,45.5,26.875,12.082-5.344,27.146-13.554,45-26.565,1.046-.736,2.323-1.781,3.64-2.827-3.834-.852-10.378.852-10.378.852s-6.738,6.351-12.082,7.4c-5.228,1.123-11.888.929-17.387,1.781-5.538.852-8.791,6.351-8.791,6.351s-3.175-5.538-8.79-6.351c-5.538-.852-12.16-.658-17.426-1.781-5.228-1.123-12.082-7.4-12.082-7.4a35.495,35.495,0,0,0-7.745-1.123,11.011,11.011,0,0,0-2.633.271" transform="translate(-135.3 -220.7)"/>
    </clipPath>
    <radialGradient id="radial-gradient-9" cx="0.502" cy="-1.374" r="2.151" gradientTransform="translate(-0.515) scale(0.311 1)" xlink:href="#linear-gradient"/>
  </defs>
  <g id="Elhaj-Logo" transform="translate(-162 -474.881)">
    <g id="Group_2" data-name="Group 2" transform="translate(234.221 530.528)">
      <g id="Group_1" data-name="Group 1" transform="translate(0)" clip-path="url(#clip-path)">
        <rect id="Rectangle_2" data-name="Rectangle 2" width="20.214" height="37.137" fill="#3d3d3b"/>
      </g>
    </g>
    <g id="Group_4" data-name="Group 4" transform="translate(234.221 521.35)">
      <g id="Group_3" data-name="Group 3" transform="translate(0)" clip-path="url(#clip-path-2)">
        <rect id="Rectangle_3" data-name="Rectangle 3" width="20.214" height="12.818" fill="#3d3d3b"/>
      </g>
    </g>
    <g id="Group_6" data-name="Group 6" transform="translate(254.436 530.528)">
      <g id="Group_5" data-name="Group 5" clip-path="url(#clip-path-3)">
        <rect id="Rectangle_4" data-name="Rectangle 4" width="20.214" height="32.645" fill="#3d3d3b"/>
      </g>
    </g>
    <g id="Group_8" data-name="Group 8" transform="translate(254.436 521.35)">
      <g id="Group_7" data-name="Group 7" clip-path="url(#clip-path-4)">
        <rect id="Rectangle_5" data-name="Rectangle 5" width="20.214" height="11.966" fill="#3d3d3b"/>
      </g>
    </g>
    <g id="Group_10" data-name="Group 10" transform="translate(162.039 617.929)">
      <g id="Group_9" data-name="Group 9" transform="translate(0)" clip-path="url(#clip-path-5)">
        <rect id="Rectangle_6" data-name="Rectangle 6" width="7.861" height="12.431" fill="#fff"/>
      </g>
    </g>
    <g id="Group_12" data-name="Group 12" transform="translate(171.139 621.879)">
      <g id="Group_11" data-name="Group 11" transform="translate(0)" clip-path="url(#clip-path-6)">
        <rect id="Rectangle_7" data-name="Rectangle 7" width="6.932" height="12.431" fill="#fff"/>
      </g>
    </g>
    <g id="Group_14" data-name="Group 14" transform="translate(176.638 628.617)">
      <g id="Group_13" data-name="Group 13" clip-path="url(#clip-path-7)">
        <rect id="Rectangle_8" data-name="Rectangle 8" width="3.756" height="1.588" transform="translate(0)" fill="#fff"/>
      </g>
    </g>
    <g id="Group_16" data-name="Group 16" transform="translate(178.884 628.617)">
      <g id="Group_15" data-name="Group 15" clip-path="url(#clip-path-8)">
        <rect id="Rectangle_9" data-name="Rectangle 9" width="3.756" height="1.588" fill="#fff"/>
      </g>
    </g>
    <g id="Group_18" data-name="Group 18" transform="translate(181.246 628.617)">
      <g id="Group_17" data-name="Group 17" clip-path="url(#clip-path-9)">
        <rect id="Rectangle_10" data-name="Rectangle 10" width="3.756" height="1.588" transform="translate(0)" fill="#fff"/>
      </g>
    </g>
    <g id="Group_20" data-name="Group 20" transform="translate(183.26 621.453)">
      <g id="Group_19" data-name="Group 19" clip-path="url(#clip-path-10)">
        <rect id="Rectangle_11" data-name="Rectangle 11" width="13.747" height="8.984" transform="translate(0.039 0.039)" fill="#fff"/>
      </g>
    </g>
    <g id="Group_22" data-name="Group 22" transform="translate(195.458 621.746)">
      <g id="Group_21" data-name="Group 21" clip-path="url(#clip-path-11)">
        <rect id="Rectangle_12" data-name="Rectangle 12" width="12.74" height="8.636" transform="translate(0 -0.022)" fill="#fff"/>
      </g>
    </g>
    <g id="Group_24" data-name="Group 24" transform="translate(206.688 628.617)">
      <g id="Group_23" data-name="Group 23" transform="translate(0)" clip-path="url(#clip-path-12)">
        <rect id="Rectangle_13" data-name="Rectangle 13" width="3.756" height="1.588" fill="#fff"/>
      </g>
    </g>
    <g id="Group_26" data-name="Group 26" transform="translate(208.934 628.617)">
      <g id="Group_25" data-name="Group 25" clip-path="url(#clip-path-13)">
        <rect id="Rectangle_14" data-name="Rectangle 14" width="3.756" height="1.588" fill="#fff"/>
      </g>
    </g>
    <g id="Group_28" data-name="Group 28" transform="translate(210.987 616.225)">
      <g id="Group_27" data-name="Group 27" clip-path="url(#clip-path-14)">
        <rect id="Rectangle_15" data-name="Rectangle 15" width="4.763" height="14.057" transform="translate(0 0.039)" fill="#fff"/>
      </g>
    </g>
    <g id="Group_30" data-name="Group 30" transform="translate(218.77 616.264)">
      <g id="Group_29" data-name="Group 29" clip-path="url(#clip-path-15)">
        <rect id="Rectangle_16" data-name="Rectangle 16" width="1.665" height="13.941" fill="#fff"/>
      </g>
    </g>
    <g id="Group_32" data-name="Group 32" transform="translate(223.069 621.415)">
      <g id="Group_31" data-name="Group 31" transform="translate(0)" clip-path="url(#clip-path-16)">
        <rect id="Rectangle_17" data-name="Rectangle 17" width="7.861" height="12.934" transform="translate(0 0)" fill="#fff"/>
      </g>
    </g>
    <g id="Group_34" data-name="Group 34" transform="translate(237.939 621.336)">
      <g id="Group_33" data-name="Group 33" clip-path="url(#clip-path-17)">
        <rect id="Rectangle_18" data-name="Rectangle 18" width="12.547" height="13.011" transform="translate(0 -0.037)" fill="#fff"/>
      </g>
    </g>
    <g id="Group_36" data-name="Group 36" transform="translate(249.092 628.617)">
      <g id="Group_35" data-name="Group 35" clip-path="url(#clip-path-18)">
        <rect id="Rectangle_19" data-name="Rectangle 19" width="3.756" height="1.588" fill="#fff"/>
      </g>
    </g>
    <g id="Group_38" data-name="Group 38" transform="translate(251.338 628.617)">
      <g id="Group_37" data-name="Group 37" clip-path="url(#clip-path-19)">
        <rect id="Rectangle_20" data-name="Rectangle 20" width="3.756" height="1.588" transform="translate(0)" fill="#fff"/>
      </g>
    </g>
    <g id="Group_40" data-name="Group 40" transform="translate(253.661 628.617)">
      <g id="Group_39" data-name="Group 39" clip-path="url(#clip-path-20)">
        <rect id="Rectangle_21" data-name="Rectangle 21" width="3.756" height="1.588" transform="translate(0)" fill="#fff"/>
      </g>
    </g>
    <g id="Group_42" data-name="Group 42" transform="translate(255.636 621.376)">
      <g id="Group_41" data-name="Group 41" clip-path="url(#clip-path-21)">
        <rect id="Rectangle_22" data-name="Rectangle 22" width="13.205" height="8.79" transform="translate(0 0.039)" fill="#fff"/>
      </g>
    </g>
    <g id="Group_44" data-name="Group 44" transform="translate(267.215 616.225)">
      <g id="Group_43" data-name="Group 43" clip-path="url(#clip-path-22)">
        <rect id="Rectangle_23" data-name="Rectangle 23" width="4.763" height="14.057" transform="translate(0.039 0.039)" fill="#fff"/>
      </g>
    </g>
    <g id="Group_46" data-name="Group 46" transform="translate(274.921 616.264)">
      <g id="Group_45" data-name="Group 45" clip-path="url(#clip-path-23)">
        <rect id="Rectangle_24" data-name="Rectangle 24" width="1.704" height="13.941" fill="#fff"/>
      </g>
    </g>
    <g id="Group_48" data-name="Group 48" transform="translate(283.982 617.929)">
      <g id="Group_47" data-name="Group 47" clip-path="url(#clip-path-24)">
        <rect id="Rectangle_25" data-name="Rectangle 25" width="7.861" height="12.431" fill="#fff"/>
      </g>
    </g>
    <g id="Group_50" data-name="Group 50" transform="translate(293.044 621.879)">
      <g id="Group_49" data-name="Group 49" clip-path="url(#clip-path-25)">
        <rect id="Rectangle_26" data-name="Rectangle 26" width="4.027" height="12.431" transform="translate(0.039)" fill="#fff"/>
      </g>
    </g>
    <g id="Group_52" data-name="Group 52" transform="translate(299.898 616.264)">
      <g id="Group_51" data-name="Group 51" clip-path="url(#clip-path-26)">
        <rect id="Rectangle_27" data-name="Rectangle 27" width="1.704" height="13.941" fill="#fff"/>
      </g>
    </g>
    <g id="Group_54" data-name="Group 54" transform="translate(302.996 617.929)">
      <g id="Group_53" data-name="Group 53" clip-path="url(#clip-path-27)">
        <rect id="Rectangle_28" data-name="Rectangle 28" width="4.221" height="16.381" fill="#fff"/>
      </g>
    </g>
    <g id="Group_56" data-name="Group 56" transform="translate(309.541 621.415)">
      <g id="Group_55" data-name="Group 55" clip-path="url(#clip-path-28)">
        <rect id="Rectangle_29" data-name="Rectangle 29" width="7.861" height="12.934" transform="translate(0 0)" fill="#fff"/>
      </g>
    </g>
    <g id="Group_58" data-name="Group 58" transform="translate(162 641.048)">
      <g id="Group_57" data-name="Group 57" clip-path="url(#clip-path-29)">
        <rect id="Rectangle_30" data-name="Rectangle 30" width="6.816" height="7.861" transform="translate(-0.039)" fill="url(#linear-gradient)"/>
      </g>
    </g>
    <g id="Group_60" data-name="Group 60" transform="translate(170.674 641.048)">
      <g id="Group_59" data-name="Group 59" clip-path="url(#clip-path-30)">
        <rect id="Rectangle_31" data-name="Rectangle 31" width="0.929" height="7.861" fill="url(#linear-gradient-2)"/>
      </g>
    </g>
    <g id="Group_62" data-name="Group 62" transform="translate(173.617 641.048)">
      <g id="Group_61" data-name="Group 61" clip-path="url(#clip-path-31)">
        <rect id="Rectangle_32" data-name="Rectangle 32" width="5.615" height="7.861" transform="translate(-0.039)" fill="url(#linear-gradient-3)"/>
      </g>
    </g>
    <g id="Group_64" data-name="Group 64" transform="translate(181.052 641.048)">
      <g id="Group_63" data-name="Group 63" transform="translate(0)" clip-path="url(#clip-path-32)">
        <rect id="Rectangle_33" data-name="Rectangle 33" width="0.929" height="7.861" transform="translate(0)" fill="url(#linear-gradient-4)"/>
      </g>
    </g>
    <g id="Group_66" data-name="Group 66" transform="translate(183.434 640.85)">
      <g id="Group_65" data-name="Group 65" clip-path="url(#clip-path-33)">
        <rect id="Rectangle_34" data-name="Rectangle 34" width="5.538" height="8.248" transform="translate(-0.058 -0.073)" fill="url(#linear-gradient-5)"/>
      </g>
    </g>
    <g id="Group_68" data-name="Group 68" transform="translate(189.959 641.048)">
      <g id="Group_67" data-name="Group 67" clip-path="url(#clip-path-34)">
        <rect id="Rectangle_35" data-name="Rectangle 35" width="5.693" height="7.861" transform="translate(0)" fill="url(#linear-gradient-6)"/>
      </g>
    </g>
    <g id="Group_70" data-name="Group 70" transform="translate(196.968 641.125)">
      <g id="Group_69" data-name="Group 69" transform="translate(0)" clip-path="url(#clip-path-35)">
        <rect id="Rectangle_36" data-name="Rectangle 36" width="5.693" height="7.861" transform="translate(0 0.039)" fill="url(#linear-gradient-7)"/>
      </g>
    </g>
    <g id="Group_72" data-name="Group 72" transform="translate(203.154 641.164)">
      <g id="Group_71" data-name="Group 71" transform="translate(0)" clip-path="url(#clip-path-36)">
        <rect id="Rectangle_37" data-name="Rectangle 37" width="5.809" height="7.784" transform="translate(-0.028)" fill="url(#linear-gradient-8)"/>
      </g>
    </g>
    <g id="Group_74" data-name="Group 74" transform="translate(212.226 640.777)">
      <g id="Group_73" data-name="Group 73" clip-path="url(#clip-path-37)">
        <rect id="Rectangle_38" data-name="Rectangle 38" width="5.693" height="8.248" fill="url(#linear-gradient-9)"/>
      </g>
    </g>
    <g id="Group_76" data-name="Group 76" transform="translate(219.545 641.048)">
      <g id="Group_75" data-name="Group 75" transform="translate(0)" clip-path="url(#clip-path-38)">
        <rect id="Rectangle_39" data-name="Rectangle 39" width="4.957" height="7.784" transform="translate(-0.039)" fill="url(#linear-gradient-10)"/>
      </g>
    </g>
    <g id="Group_78" data-name="Group 78" transform="translate(228.645 641.048)">
      <g id="Group_77" data-name="Group 77" transform="translate(0)" clip-path="url(#clip-path-39)">
        <rect id="Rectangle_40" data-name="Rectangle 40" width="5.421" height="7.861" transform="translate(-0.039)" fill="url(#linear-gradient-11)"/>
      </g>
    </g>
    <g id="Group_80" data-name="Group 80" transform="translate(235.383 641.048)">
      <g id="Group_79" data-name="Group 79" transform="translate(0)" clip-path="url(#clip-path-40)">
        <rect id="Rectangle_41" data-name="Rectangle 41" width="6.544" height="7.861" transform="translate(-0.039)" fill="url(#linear-gradient-12)"/>
      </g>
    </g>
    <g id="Group_82" data-name="Group 82" transform="translate(242.354 641.048)">
      <g id="Group_81" data-name="Group 81" clip-path="url(#clip-path-41)">
        <rect id="Rectangle_42" data-name="Rectangle 42" width="4.415" height="7.939" fill="url(#linear-gradient-13)"/>
      </g>
    </g>
    <g id="Group_84" data-name="Group 84" transform="translate(248.007 641.048)">
      <g id="Group_83" data-name="Group 83" clip-path="url(#clip-path-42)">
        <rect id="Rectangle_43" data-name="Rectangle 43" width="4.415" height="7.939" transform="translate(-0.039)" fill="url(#linear-gradient-14)"/>
      </g>
    </g>
    <g id="Group_86" data-name="Group 86" transform="translate(256.217 641.048)">
      <g id="Group_85" data-name="Group 85" clip-path="url(#clip-path-43)">
        <rect id="Rectangle_44" data-name="Rectangle 44" width="6.661" height="7.861" transform="translate(0)" fill="url(#linear-gradient-15)"/>
      </g>
    </g>
    <g id="Group_88" data-name="Group 88" transform="translate(264.001 641.048)">
      <g id="Group_87" data-name="Group 87" clip-path="url(#clip-path-44)">
        <rect id="Rectangle_45" data-name="Rectangle 45" width="5.615" height="7.861" transform="translate(-0.039)" fill="url(#linear-gradient-16)"/>
      </g>
    </g>
    <g id="Group_90" data-name="Group 90" transform="translate(271.474 640.97)">
      <g id="Group_89" data-name="Group 89" clip-path="url(#clip-path-45)">
        <rect id="Rectangle_46" data-name="Rectangle 46" width="5.421" height="7.861" transform="translate(0 0.077)" fill="url(#linear-gradient-17)"/>
      </g>
    </g>
    <g id="Group_92" data-name="Group 92" transform="translate(281.349 641.048)">
      <g id="Group_91" data-name="Group 91" clip-path="url(#clip-path-46)">
        <rect id="Rectangle_47" data-name="Rectangle 47" width="5.421" height="8.055" transform="translate(-0.077)" fill="url(#linear-gradient-18)"/>
      </g>
    </g>
    <g id="Group_94" data-name="Group 94" transform="translate(288.746 641.048)">
      <g id="Group_93" data-name="Group 93" clip-path="url(#clip-path-47)">
        <rect id="Rectangle_48" data-name="Rectangle 48" width="6.816" height="7.861" transform="translate(-0.077)" fill="url(#linear-gradient-19)"/>
      </g>
    </g>
    <g id="Group_96" data-name="Group 96" transform="translate(297.304 641.125)">
      <g id="Group_95" data-name="Group 95" clip-path="url(#clip-path-48)">
        <rect id="Rectangle_49" data-name="Rectangle 49" width="5.693" height="7.861" transform="translate(0 0.039)" fill="url(#linear-gradient-20)"/>
      </g>
    </g>
    <g id="Group_98" data-name="Group 98" transform="translate(303.693 641.048)">
      <g id="Group_97" data-name="Group 97" clip-path="url(#clip-path-49)">
        <rect id="Rectangle_50" data-name="Rectangle 50" width="6.544" height="7.861" transform="translate(-0.039)" fill="url(#linear-gradient-21)"/>
      </g>
    </g>
    <g id="Group_100" data-name="Group 100" transform="translate(311.245 641.048)">
      <g id="Group_99" data-name="Group 99" clip-path="url(#clip-path-50)">
        <rect id="Rectangle_51" data-name="Rectangle 51" width="5.421" height="7.861" fill="url(#linear-gradient-22)"/>
      </g>
    </g>
    <g id="Group_102" data-name="Group 102" transform="translate(192.825 474.881)">
      <g id="Group_101" data-name="Group 101" clip-path="url(#clip-path-51)">
        <rect id="Rectangle_52" data-name="Rectangle 52" width="97.509" height="55.028" transform="translate(0 -0.039)" fill="url(#radial-gradient)"/>
      </g>
    </g>
    <g id="Group_104" data-name="Group 104" transform="translate(209.205 543.617)">
      <g id="Group_103" data-name="Group 103" clip-path="url(#clip-path-52)">
        <rect id="Rectangle_53" data-name="Rectangle 53" width="24.9" height="4.492" fill="url(#radial-gradient-2)"/>
      </g>
    </g>
    <g id="Group_106" data-name="Group 106" transform="translate(210.328 538.466)">
      <g id="Group_105" data-name="Group 105" transform="translate(0)" clip-path="url(#clip-path-53)">
        <rect id="Rectangle_55" data-name="Rectangle 55" width="23.854" height="4.492" fill="url(#radial-gradient-3)"/>
      </g>
    </g>
    <g id="Group_108" data-name="Group 108" transform="translate(195.071 559.726)">
      <g id="Group_107" data-name="Group 107" transform="translate(0 0)" clip-path="url(#clip-path-54)">
        <rect id="Rectangle_57" data-name="Rectangle 57" width="91.7" height="49.142" transform="translate(0 0)" fill="url(#radial-gradient-4)"/>
      </g>
    </g>
    <g id="Group_110" data-name="Group 110" transform="translate(242.896 590.241)">
      <g id="Group_109" data-name="Group 109" clip-path="url(#clip-path-55)">
        <rect id="Rectangle_58" data-name="Rectangle 58" width="44.533" height="18.433" fill="url(#radial-gradient-5)"/>
      </g>
    </g>
    <g id="Group_112" data-name="Group 112" transform="translate(195.729 559.533)">
      <g id="Group_111" data-name="Group 111" transform="translate(0 0)" clip-path="url(#clip-path-56)">
        <rect id="Rectangle_59" data-name="Rectangle 59" width="44.533" height="29.586" transform="translate(0 0)" fill="url(#radial-gradient-6)"/>
      </g>
    </g>
    <g id="Group_114" data-name="Group 114" transform="translate(208.276 548.767)">
      <g id="Group_113" data-name="Group 113" transform="translate(0)" clip-path="url(#clip-path-57)">
        <rect id="Rectangle_60" data-name="Rectangle 60" width="25.907" height="12.818" fill="url(#radial-gradient-7)"/>
      </g>
    </g>
    <g id="Group_116" data-name="Group 116" transform="translate(211.209 508.958)">
      <g id="Group_115" data-name="Group 115" transform="translate(0 0)" clip-path="url(#clip-path-58)">
        <rect id="Rectangle_61" data-name="Rectangle 61" width="30.98" height="28.927" transform="translate(-0.106 -0.039)" fill="url(#radial-gradient-8)"/>
      </g>
    </g>
    <g id="Group_118" data-name="Group 118" transform="translate(192.941 548.302)">
      <g id="Group_117" data-name="Group 117" clip-path="url(#clip-path-59)">
        <rect id="Rectangle_62" data-name="Rectangle 62" width="97.315" height="30.244" transform="translate(0 -0.542)" fill="url(#radial-gradient-9)"/>
      </g>
    </g>
  </g>
</svg>
